<?xml version="1.0" encoding="UTF-8"?>
<svg width="878px" height="101px" viewBox="0 0 878 101" version="1.1" xmlns="http://www.w3.org/2000/svg" xmlns:xlink="http://www.w3.org/1999/xlink">
    <!-- Generator: Sketch 48.2 (47327) - http://www.bohemiancoding.com/sketch -->
    <title>Group</title>
    <desc>Created with Sketch.</desc>
    <defs></defs>
    <g id="Home-Desktop" stroke="none" stroke-width="1" fill="none" fill-rule="evenodd" transform="translate(-496.000000, -3813.000000)">
        <g id="HEY!" transform="translate(70.000000, 3676.000000)">
            <g id="Group" transform="translate(426.000000, 137.000000)">
                <text id="I'M-LENNY.-YOUR-DESI" font-family="Futura-Bold, Futura" font-size="26" font-weight="bold" letter-spacing="1.70000005" fill="#000000">
                    <tspan x="13" y="100">I'M LENNY. YOUR DESIGNER &amp; PRINTER. HOW GOES IT</tspan>
                    <tspan x="830.208002" y="100">?</tspan>
                </text>
                <path d="M601.0188,61.5195 C600.9958,61.5385 600.9728,61.5575 600.9488,61.5765 C600.9928,61.5815 601.0358,61.5855 601.0798,61.5895 C601.0598,61.5655 601.0388,61.5425 601.0188,61.5195 M464.9878,60.6315 C464.9328,60.5975 464.8768,60.5365 464.8208,60.5355 C464.7608,60.5345 464.6998,60.5895 464.6388,60.6205 C464.6958,60.6555 464.7518,60.7165 464.8098,60.7175 C464.8688,60.7195 464.9288,60.6635 464.9878,60.6315 M619.0678,60.6315 C619.0118,60.5975 618.9568,60.5375 618.9008,60.5365 C618.8408,60.5355 618.7798,60.5905 618.7198,60.6205 C618.7758,60.6555 618.8318,60.7155 618.8898,60.7175 C618.9478,60.7195 619.0088,60.6625 619.0678,60.6315 M157.2138,60.8595 C157.0628,60.6845 156.9878,60.5385 156.9328,60.5455 C156.7688,60.5665 156.6118,60.6475 156.4518,60.7055 C156.5068,60.7915 156.5578,60.9475 156.6178,60.9505 C156.7808,60.9605 156.9478,60.9055 157.2138,60.8595 M773.3028,60.6955 C773.1758,60.5205 773.0618,60.3075 773.0238,60.3205 C772.8598,60.3755 772.7178,60.4975 772.5678,60.5945 C772.6918,60.7155 772.8008,60.8675 772.9488,60.9415 C773.0008,60.9675 773.1478,60.8075 773.3028,60.6955 M310.3998,60.5855 C310.5328,60.7485 310.6528,60.9535 310.6958,60.9385 C310.8598,60.8805 310.9998,60.7525 311.1488,60.6495 C311.0168,60.5325 310.8998,60.3845 310.7468,60.3155 C310.6938,60.2915 310.5518,60.4625 310.3998,60.5855 M101.0518,59.1145 C101.1988,58.8995 101.3778,58.7315 101.4248,58.5315 C101.4508,58.4205 101.2768,58.1705 101.1578,58.1445 C101.0448,58.1195 100.8358,58.2765 100.7608,58.4065 C100.6948,58.5225 100.7278,58.7185 100.7688,58.8645 C100.7908,58.9465 100.9168,59.0005 101.0518,59.1145 M563.1238,57.9185 C562.9278,58.1965 562.7618,58.3265 562.7508,58.4685 C562.7288,58.7685 562.8948,59.0145 563.2158,59.0135 C563.2958,59.0125 563.4468,58.7305 563.4368,58.5855 C563.4248,58.4055 563.2808,58.2355 563.1238,57.9185 M717.5308,58.7675 C717.5528,58.2365 717.4388,58.0635 717.1398,58.1245 C717.0218,58.1495 716.8598,58.2835 716.8388,58.3915 C716.7728,58.7305 717.0878,59.1185 717.3298,59.0215 C717.4398,58.9785 717.4998,58.8105 717.5308,58.7675 M308.0838,58.7175 C308.0838,58.4285 308.1078,58.2685 308.0798,58.1175 C308.0138,57.7775 307.7098,57.5675 307.3948,57.6445 C306.9958,57.7415 307.1408,58.0715 307.1548,58.3165 C307.1628,58.4575 307.3048,58.5865 307.3408,58.7325 C307.4108,59.0265 307.6108,59.1345 307.8538,59.0335 C307.9868,58.9785 308.0528,58.7635 308.0838,58.7175 M627.2958,59.1875 C627.2828,58.4035 626.9478,58.1855 626.2588,58.5145 C626.1538,58.5645 626.0148,58.5805 625.9418,58.6595 C625.7688,58.8455 625.6258,59.0595 625.4708,59.2625 C625.7198,59.4365 625.9568,59.6355 626.2238,59.7745 C626.3498,59.8395 626.5358,59.7915 626.6938,59.7885 C627.2618,59.7785 627.3048,59.7345 627.2958,59.1875 M780.5698,59.8095 C780.9238,59.8325 781.2328,59.7235 781.3358,59.3845 C781.4228,59.0965 781.4538,58.7615 781.1708,58.5105 C780.9298,58.2955 780.6858,58.3045 780.4198,58.4605 C780.3218,58.5175 780.2008,58.5885 780.0988,58.5785 C779.6968,58.5375 779.5938,58.8995 779.5898,59.1005 C779.5858,59.2995 779.8218,59.5445 780.0128,59.6935 C780.1468,59.7985 780.3808,59.7745 780.5698,59.8095 M10.4148,59.7895 C10.8358,59.7815 11.1328,59.6525 11.1818,59.3755 C11.2218,59.1565 11.2168,58.8815 11.1158,58.6945 C10.9548,58.3965 10.3148,58.3025 9.9588,58.5135 C9.6618,58.6895 9.3908,58.9205 9.1408,59.1615 C9.0698,59.2295 10.0208,59.7765 10.2948,59.7885 C10.3348,59.7905 10.3748,59.7885 10.4148,59.7895 M473.2178,59.0375 C473.1578,58.9255 473.0308,58.6065 472.8328,58.3425 C472.6428,58.0895 472.3978,57.9775 472.2228,58.4025 C472.1888,58.4855 472.0458,58.5655 471.9478,58.5735 C471.6398,58.5985 471.3338,58.7355 471.3558,59.0205 C471.3708,59.2085 471.6788,59.4095 471.8958,59.5345 C472.1198,59.6635 472.3888,59.7585 472.6458,59.7785 C473.1428,59.8175 473.2098,59.7325 473.2178,59.0375 M556.8418,60.7095 C556.9418,60.6315 557.0068,60.5865 557.0658,60.5345 C557.6458,60.0305 558.2318,59.5335 558.7928,59.0095 C558.8578,58.9475 558.8318,58.7025 558.7628,58.5995 C558.5898,58.3395 558.3318,58.3015 558.0308,58.4055 C557.2198,58.6855 556.8598,59.4165 556.3868,60.0335 C556.3458,60.0875 556.3828,60.2495 556.4378,60.3185 C556.5548,60.4655 556.7088,60.5845 556.8418,60.7095 M248.3068,60.2315 C248.3618,60.3705 248.3848,60.6305 248.5108,60.6955 C248.6438,60.7655 248.9408,60.7155 249.0488,60.6035 C249.5378,60.0985 250.1768,59.7395 250.5438,59.1225 C250.6268,58.9835 250.6768,58.7305 250.6048,58.6185 C250.5158,58.4815 250.2848,58.3725 250.1128,58.3695 C249.9338,58.3655 249.7338,58.4745 249.5748,58.5815 C248.9888,58.9765 248.3548,59.3435 248.3068,60.2315 M866.2738,58.3545 C866.1948,58.3585 866.1058,58.3395 866.0398,58.3705 C865.4028,58.6655 864.9888,59.2385 864.4918,59.6965 C864.3358,59.8405 864.3938,60.4465 864.5708,60.6505 C864.7298,60.8325 865.0938,60.7755 865.4448,60.4615 C865.9168,60.0405 866.2998,59.5785 866.6638,59.0845 C866.8928,58.7745 866.6638,58.3735 866.2738,58.3545 M94.1688,60.0875 C94.2808,60.3725 94.3118,60.6545 94.4258,60.6955 C94.6268,60.7655 94.9658,60.7765 95.0938,60.6535 C95.5868,60.1785 96.0358,59.6555 96.4658,59.1225 C96.7318,58.7915 96.5728,58.4295 96.1588,58.3645 C95.8408,58.3135 95.5388,58.3275 95.3028,58.6265 C95.1178,58.8605 94.8518,59.0305 94.6708,59.2665 C94.4678,59.5285 94.3208,59.8335 94.1688,60.0875 M402.7928,60.7455 C402.8478,60.7295 402.9918,60.7305 403.0658,60.6595 C403.6248,60.1175 404.2938,59.6805 404.7088,59.0045 C404.7738,58.8985 404.6958,58.5835 404.5918,58.5235 C404.4138,58.4215 404.1328,58.3595 403.9498,58.4275 C403.2188,58.7015 402.7328,59.3015 402.2558,59.8795 C401.9948,60.1935 402.3138,60.7215 402.7928,60.7455 M713.0488,58.7045 C712.8918,58.5925 712.7728,58.4405 712.6348,58.4215 C712.3728,58.3855 712.0438,58.3315 711.8418,58.4515 C711.2488,58.8035 710.7388,59.2725 710.3988,59.8905 C710.3458,59.9865 710.3128,60.1415 710.3538,60.2305 C710.4318,60.3995 710.5408,60.6065 710.6928,60.6755 C710.8368,60.7415 711.1098,60.7175 711.2248,60.6175 C711.7548,60.1565 712.2528,59.6585 712.7508,59.1635 C712.8548,59.0605 712.9158,58.9135 713.0488,58.7045 M277.827403,58.0352249 C278.808256,57.9407791 279.765657,58.086863 280.7268,58.3265 C281.3418,58.4795 281.8678,58.0915 282.4078,57.8695 C282.7338,57.7365 282.9318,57.5405 283.2658,57.9955 C283.5348,58.3625 284.1148,58.1035 284.3098,57.5345 C284.4098,57.2445 284.5218,57.1515 284.7928,57.1525 C286.0718,57.1575 287.3528,57.1375 288.6318,57.1715 C289.1358,57.1855 289.6558,57.4465 290.1348,57.3715 C292.6318,56.9845 295.1418,57.2365 297.6428,57.1535 C298.7458,56.7365 299.6608,57.4625 300.6628,57.6555 C300.9738,57.7155 301.1168,57.9375 301.1368,58.2585 C301.1488,58.4495 301.1788,58.6605 301.2728,58.8185 C301.3378,58.9285 301.5218,58.9875 301.6638,59.0185 C301.7038,59.0265 301.8188,58.8625 301.8358,58.7665 C301.8688,58.5715 301.8248,58.3585 301.8788,58.1725 C301.9128,58.0565 302.0518,57.9455 302.1708,57.8865 C302.2688,57.8385 302.4058,57.8655 302.5258,57.8685 C304.1108,57.9135 305.6608,57.6045 307.2268,57.4535 C308.6968,57.3105 310.2068,57.2105 311.6838,57.8305 C313.1588,58.4495 314.7798,58.4745 316.3598,58.3215 C316.8938,58.2695 317.4208,58.0495 317.9798,58.1385 C318.0388,58.1475 318.1128,58.2285 318.1288,58.2905 C318.1458,58.3535 318.1198,58.4495 318.0758,58.5005 C318.0288,58.5535 317.9288,58.5585 317.8698,58.6065 C317.6488,58.7875 317.2168,58.9485 317.3778,59.2555 C317.6328,59.7425 318.4758,59.9435 318.8418,59.6915 C319.2478,59.4135 319.2328,58.9935 319.0238,58.6315 C318.7998,58.2435 318.9958,58.1035 319.2958,58.0475 C320.8118,57.7615 322.2748,56.9635 323.8938,57.5985 C324.1598,57.7025 324.5198,57.6005 324.8288,57.5485 C325.5208,57.4345 326.2038,57.2555 326.8998,57.1725 C327.4458,57.1075 327.9798,57.1825 328.5308,57.3665 C329.8708,57.8125 331.2648,57.7785 332.6288,57.4655 C333.4558,57.2755 334.1788,57.6285 334.9388,57.7545 C335.6918,57.8795 336.4148,57.9415 337.1578,57.7425 C337.6478,57.6115 338.1448,57.5005 338.6438,57.4155 C338.8298,57.3845 339.0378,57.4295 339.2258,57.4795 C339.4898,57.5485 339.7548,57.6335 340.0028,57.7485 C341.0988,58.2625 342.2238,58.3885 343.4128,58.1215 C344.2878,57.9255 345.1738,57.7395 346.0648,57.6635 C347.6428,57.5275 349.2288,57.4105 350.8098,57.4235 C351.5718,57.4295 352.3418,57.7135 353.0878,57.9405 C353.4018,58.0365 353.6558,58.1905 353.9778,57.9775 C354.0968,57.8985 354.3388,57.8325 354.4208,57.8955 C355.0058,58.3415 355.5798,58.0205 356.1118,57.8495 C356.7748,57.6355 357.4378,57.6765 358.1068,57.6355 C359.3738,57.5565 360.6388,57.6955 361.9168,57.5275 C362.6898,57.4255 363.5858,57.6165 364.3028,57.9435 C364.9028,58.2175 365.3608,58.0005 365.7608,57.8215 C367.9058,56.8565 367.4928,56.9875 370.0468,57.6755 C370.7238,57.8575 371.3418,57.9765 372.0028,57.7165 C372.1108,57.6745 372.2318,57.6445 372.3468,57.6445 C374.6918,57.6495 377.0228,57.2145 379.3718,57.4035 C379.9138,57.4465 380.4448,57.6135 380.9838,57.7095 C381.3678,57.7785 381.8108,57.9705 382.1338,57.8525 C383.0068,57.5315 383.9468,57.8145 384.8098,57.4505 C385.1178,57.3215 385.5478,57.3185 385.8728,57.4185 C387.0068,57.7695 388.1598,57.6165 389.3038,57.6225 C390.2968,57.6265 391.3168,57.5705 392.2408,57.9105 C393.5628,58.3975 394.7348,57.9775 395.8938,57.5055 C396.4658,57.2725 397.0078,57.1395 397.6128,57.1565 C398.3328,57.1765 399.0528,57.1685 399.7728,57.1595 C401.4888,57.1365 403.1258,57.4875 404.7048,58.1545 C405.0208,58.2875 405.3878,58.3415 405.7338,58.3525 C406.5728,58.3785 407.4138,58.3735 408.2528,58.3515 C408.6048,58.3425 408.8658,58.3945 408.9898,58.7715 C409.0218,58.8665 409.1618,58.9255 409.2528,59.0005 C409.2928,58.8985 409.3718,58.7935 409.3658,58.6935 C409.3458,58.3135 409.4508,58.1665 409.8838,58.0925 C410.8418,57.9305 411.7778,57.6365 412.7288,57.4215 C412.8978,57.3835 413.2598,57.2595 413.0418,57.7345 C412.8338,58.1875 413.0028,58.5785 413.3928,58.8875 C413.6778,59.1135 414.0348,59.0295 414.1398,58.6805 C414.3048,58.1355 414.0168,57.7715 413.6368,57.4435 C413.5838,57.3985 413.5638,57.3155 413.5288,57.2495 C413.6008,57.2215 413.6728,57.1715 413.7458,57.1695 C414.1048,57.1615 414.4838,57.0945 414.8208,57.1805 C416.0738,57.5005 417.2968,57.4355 418.5638,57.2005 C419.3918,57.0465 420.3258,56.9495 421.0528,57.6575 C421.1208,57.7235 421.2458,57.7615 421.3428,57.7595 C422.5328,57.7255 423.7228,57.6795 424.9138,57.6405 C426.2198,57.5985 427.4928,57.8315 428.7668,58.0865 C429.4578,58.2255 430.1698,58.3405 430.8698,58.3335 C431.7328,58.3255 432.6328,58.3055 433.4448,58.0555 C434.3298,57.7835 435.2518,57.9965 436.1198,57.6655 C436.3758,57.5675 436.8108,57.4585 437.0458,57.9485 C437.1058,58.0755 437.6118,58.0435 437.8968,57.9925 C438.1098,57.9535 438.3018,57.6545 438.4938,57.6655 C439.7168,57.7285 440.9438,57.4695 442.1718,57.8195 C442.9168,58.0325 443.7248,58.0565 444.5078,58.1045 C445.3078,58.1545 446.1168,58.3625 446.9158,58.1055 C447.5448,57.9035 448.1738,58.6175 448.7258,58.1975 C449.2608,57.7895 449.9048,57.7875 450.4558,57.4985 C450.6608,57.3915 450.8998,57.3455 451.1248,57.2785 C451.2738,57.2335 451.4338,57.1495 451.5778,57.1695 C452.6238,57.3165 453.6678,57.4785 454.7078,57.6605 C454.8108,57.6785 454.9098,57.8575 454.9648,57.9815 C455.0718,58.2235 455.1108,58.5045 455.2498,58.7235 C455.3418,58.8685 455.5598,58.9335 455.7208,59.0345 C455.7928,58.8725 455.8718,58.7135 455.9328,58.5475 C455.9598,58.4755 455.9178,58.3675 455.9588,58.3125 C456.1578,58.0435 456.1978,57.7675 456.0398,57.4675 C456.4688,57.4735 456.9138,57.4065 457.3218,57.5005 C458.0068,57.6585 458.6648,57.9285 459.3408,58.1305 C459.6758,58.2295 460.0228,58.3305 460.3668,58.3425 C460.8608,58.3595 461.3378,58.3205 461.5208,58.9365 C461.5328,58.9775 461.8398,59.0085 461.9078,58.9415 C462.0368,58.8135 462.0908,58.6105 462.1778,58.4395 C462.2298,58.3395 462.2948,58.1525 462.3388,58.1565 C462.9398,58.2185 463.3688,57.7505 463.9048,57.6615 C464.6788,57.5325 465.4678,57.4885 466.2478,57.3905 C466.7518,57.3275 467.2518,57.1735 467.7548,57.1695 C468.6608,57.1615 469.5598,57.1045 470.4728,57.3515 C470.9428,57.4785 471.5008,57.5755 472.0618,57.4345 C472.5518,57.3115 473.0948,57.4045 473.6148,57.4005 C474.8398,57.3925 476.0298,57.7245 477.2318,57.8135 C478.6428,57.9185 480.0878,58.0895 481.5038,57.6905 C481.9888,57.5535 482.5008,57.4475 483.0018,57.4435 C483.5028,57.4385 484.0298,57.5085 484.5048,57.6665 C486.7958,58.4305 489.1538,58.0445 491.4828,58.0835 C492.1578,58.0945 492.8978,57.8615 493.5058,57.5435 C494.5228,57.0105 495.4808,57.2945 496.4688,57.4995 C496.6208,57.5305 496.7658,57.6175 496.9178,57.6285 C498.1788,57.7165 499.4398,57.8255 500.7028,57.8645 C501.9818,57.9035 503.2628,57.8865 504.5418,57.8575 C504.9268,57.8485 505.3138,57.6335 505.6908,57.6585 C506.7078,57.7265 507.7198,57.8725 508.7328,57.9875 C509.0838,58.0275 509.4788,58.1905 509.7758,58.0825 C510.6728,57.7575 511.5838,57.9095 512.4878,57.8685 C513.7108,57.8135 514.9278,57.9275 516.1598,57.6745 C517.4098,57.4175 518.6958,57.6465 519.8698,58.1745 C520.3878,58.4075 520.9228,58.4455 521.3798,58.3135 C522.0498,58.1205 522.7088,58.0925 523.3748,58.1255 C524.0188,58.1575 524.6208,57.8565 525.3108,58.0705 C525.8968,58.2525 526.5848,58.0685 527.2188,58.1305 C528.6298,58.2695 529.9668,57.9445 531.2738,57.5065 C531.8998,57.2975 532.4498,57.2555 533.0468,57.5455 C533.2848,57.6615 533.5948,57.6205 533.8488,57.7145 C534.3228,57.8895 534.7798,58.2705 535.2438,58.2705 C535.7128,58.2705 536.1788,57.9045 536.6518,57.7135 C537.2828,57.4585 537.9348,57.3695 538.6218,57.3835 C540.1408,57.4155 541.6618,57.4205 543.1808,57.3815 C543.8288,57.3645 544.4908,57.3865 545.0318,57.6805 C546.0628,58.2405 547.0918,58.1655 548.1188,57.8445 C549.3578,57.4585 550.5348,57.5535 551.6738,58.1145 C552.1008,58.3245 552.4518,58.3855 552.8898,58.1455 C553.1908,57.9805 553.6028,58.0125 553.8978,57.8415 C554.8798,57.2695 555.8358,57.4155 556.8248,57.8025 C557.6078,58.1095 558.4118,58.3535 559.1758,57.7275 C560.0998,57.8235 560.9218,57.2535 561.9468,57.5565 C563.4038,57.9885 564.9618,57.9265 566.4568,57.4495 C566.6038,57.4025 566.7708,57.4075 566.9278,57.4045 C567.1848,57.4015 567.2548,57.4625 567.1208,57.7415 C566.9568,58.0805 567.0178,58.4495 567.2768,58.7435 C567.3908,58.8725 567.5588,59.0455 567.6958,59.0395 C567.8598,59.0325 568.0918,58.8925 568.1618,58.7465 C568.3218,58.4145 568.3398,58.0565 568.0308,57.7595 C567.9548,57.6865 567.9148,57.5755 567.8578,57.4825 C567.9708,57.4575 568.1118,57.3765 568.1918,57.4165 C568.7538,57.6995 569.3538,57.6585 569.9428,57.6275 C571.5688,57.5435 573.2048,57.8315 574.8268,57.4835 C574.9568,57.4555 575.1408,57.6785 575.2998,57.7845 C575.7048,57.1515 576.3408,57.4485 576.8828,57.4095 C577.4398,57.3705 578.0038,57.3745 578.5618,57.4065 C579.9338,57.4855 581.3068,57.5525 582.6548,57.8555 C583.0738,57.9495 583.5098,57.9665 583.9318,58.0505 C584.3418,58.1315 584.7398,57.6165 585.1478,58.0395 C585.7568,57.5995 586.4918,57.6655 587.1768,57.5395 C587.9848,57.3905 588.7978,57.2375 589.6138,57.1815 C590.0278,57.1535 590.4598,57.3255 590.8748,57.4365 C590.9528,57.4565 591.0388,57.6165 591.0408,57.7135 C591.0528,58.1395 591.3838,58.1905 591.6238,58.0945 C592.463397,57.7588346 593.326316,57.8587511 594.180583,57.8859445 C594.143926,57.061621 593.945381,56.2855161 593.5798,55.5363 C593.4638,55.2983 593.4648,55.0033 593.3938,54.6393 C593.5258,54.3343 593.6078,53.9173 593.8478,53.6373 C594.2448,53.1753 594.1118,52.7293 594.0898,52.2063 C594.0208,50.5093 593.4388,48.8863 593.4498,47.1833 C593.4538,46.5673 593.7068,46.0393 593.9208,45.4933 C594.1308,44.9563 594.2008,44.4313 593.7558,43.9843 C593.4918,43.7193 593.4798,43.5203 593.6288,43.1563 C593.7908,42.7643 594.0428,42.3183 593.7318,41.8253 C593.6378,41.6753 593.7578,41.3693 593.8198,41.1463 C593.9468,40.6933 594.0528,40.2253 594.2598,39.8093 C594.4138,39.5003 594.4068,39.3023 594.1608,39.0833 C594.0118,38.9513 593.8858,38.7923 593.7358,38.6603 C593.4968,38.4493 593.4258,38.2563 593.6158,37.9423 C593.7948,37.6453 593.8248,37.2613 593.9958,36.9573 C594.3058,36.4033 594.2138,35.8963 593.9338,35.3793 C593.8018,35.1353 593.6718,34.8893 593.5628,34.6343 C593.4148,34.2903 593.3438,33.9243 593.6588,33.6423 C593.9778,33.3573 594.0518,32.9583 593.9148,32.6593 C593.6498,32.0813 593.8928,31.6053 594.0378,31.0953 C594.0808,30.9453 594.1238,30.7953 594.1778,30.6483 C594.3978,30.0553 594.4188,29.5183 593.7988,29.1313 C593.5148,28.9543 593.4558,28.6993 593.6938,28.4563 C594.1858,27.9523 594.2408,27.3403 594.1838,26.6923 C594.1338,26.1163 594.3308,25.5123 593.8178,24.9973 C593.6708,24.8503 593.7678,24.4063 593.8358,24.1173 C593.8948,23.8623 594.0618,23.6303 594.1948,23.3963 C594.5318,22.8003 594.5138,22.2743 593.9398,21.8193 C593.6458,21.5873 593.6248,21.2933 593.8248,20.9703 C594.1018,20.5233 594.3378,20.0793 593.9738,19.5403 C593.9018,19.4333 594.0258,19.1653 594.1048,18.9923 C594.4588,18.2213 594.3138,17.4863 593.9648,16.7673 C593.7688,16.3673 593.6818,15.9623 593.6838,15.5103 C593.6848,15.1273 593.5278,14.7463 593.4988,14.3603 C593.4608,13.8443 593.2998,13.2323 593.5088,12.8243 C594.1308,11.6113 593.6718,10.4743 593.4898,9.3063 C593.4648,9.1493 593.4428,8.9843 593.4628,8.8293 C593.5608,8.1043 593.7148,7.3843 593.4658,6.6543 C593.4208,6.5233 593.4578,6.3123 593.5408,6.1993 C594.2818,5.1833 593.8948,4.0783 593.8158,2.9983 C593.7968,2.7263 593.7098,2.4573 593.7018,2.1843 C593.6728,1.1813 593.6798,1.1813 594.6418,1.0753 C594.7208,1.0663 594.8278,1.0973 594.8758,1.0563 C595.2188,0.7623 595.5448,0.2233 595.8848,0.2163 C596.2328,0.2093 596.3308,0.9943 596.8838,1.0763 C597.1708,1.1183 597.5928,0.9173 597.7048,1.2883 C597.7648,1.4873 597.4838,1.7713 597.4138,2.0333 C597.3718,2.1913 597.4018,2.3953 597.4688,2.5483 C597.5278,2.6853 597.6708,2.7973 597.7978,2.8913 C598.3168,3.2733 598.2828,3.6773 598.0128,4.2353 C597.5878,5.1163 597.1838,6.0373 597.2908,7.0583 C597.3718,7.8373 597.4648,8.6333 597.9618,9.2813 C598.1308,9.5023 598.2228,9.6483 598.0308,9.8843 C597.9578,9.9733 597.9438,10.1093 597.8748,10.2033 C597.5468,10.6513 597.5898,11.0793 597.9678,11.4563 C598.1838,11.6713 598.2338,11.8263 597.9698,12.0243 C597.4348,12.4253 597.3318,12.9523 597.5158,13.5733 C597.5598,13.7203 597.5268,13.8913 597.5228,14.0513 C597.5038,14.8443 597.5348,14.9083 597.9438,15.5833 C598.0978,15.8373 598.2528,16.1003 598.0318,16.4413 C597.8428,16.7323 597.7998,17.1163 597.6168,17.4123 C597.2848,17.9493 597.2828,18.4423 597.7248,18.8873 C597.9358,19.0993 597.8838,19.2383 597.8078,19.4943 C597.6528,20.0163 597.5998,20.5693 597.5248,21.1133 C597.5048,21.2643 597.4948,21.4953 597.5828,21.5713 C598.1208,22.0393 597.9798,22.6543 598.0108,23.2393 C598.0228,23.4693 598.1288,23.6933 598.1538,23.9233 C598.1838,24.1913 598.2878,24.5843 598.1558,24.7103 C597.6728,25.1723 597.8028,25.7283 597.7478,26.2733 C597.7178,26.5753 597.5518,26.8633 597.4528,27.1593 C597.2088,27.8953 597.0488,28.6113 597.7188,29.2473 C597.8718,29.3923 597.9698,29.6493 597.9948,29.8673 C598.0678,30.4883 597.8818,31.1273 598.1958,31.7433 C598.2658,31.8813 598.0758,32.1833 597.9558,32.3803 C597.7008,32.7993 597.6378,33.2003 597.9988,33.5773 C598.2558,33.8443 598.3008,34.1053 598.1308,34.4393 C597.9898,34.7163 597.9388,35.0433 597.7818,35.3073 C597.4788,35.8153 597.4458,36.2333 597.9168,36.6813 C598.1678,36.9193 598.2618,37.2963 597.9808,37.6263 C597.3078,38.4203 597.2718,39.1813 598.0758,39.9133 C598.3128,40.1273 598.2558,40.3573 598.0328,40.5163 C597.0578,41.2113 597.1748,42.1073 597.5388,43.0553 C597.6478,43.3403 597.8408,43.5763 597.5818,43.9293 C597.3908,44.1883 597.2968,44.4603 596.9188,44.5243 C596.7068,44.5613 596.5338,44.8023 596.3198,44.8593 C595.8508,44.9823 595.8308,45.3133 595.8458,45.6893 C595.8538,45.8893 595.8358,46.0903 595.8498,46.2893 C595.8658,46.5093 595.7578,46.8083 596.0828,46.8833 C596.3988,46.9563 596.7248,46.9543 596.9468,46.6423 C597.1288,46.3863 597.3038,46.1253 597.4928,45.8753 C597.5288,45.8283 597.6188,45.8223 597.6838,45.7973 C597.7008,45.8703 597.7578,45.9693 597.7298,46.0133 C597.4338,46.4673 597.4658,46.9083 597.7458,47.3513 C597.7648,47.3813 597.7688,47.4333 597.7588,47.4693 C597.5218,48.3623 597.6908,49.2013 597.9818,50.0653 C598.1228,50.4833 598.1028,51.0243 597.7708,51.4363 C597.4088,51.8863 597.5088,52.3333 597.7948,52.7533 C598.0708,53.1583 598.0368,53.5803 597.9378,54.0113 C597.8158,54.5433 597.6608,55.0673 597.5408,55.5983 C597.4388,56.0493 597.5678,56.4743 597.8038,56.8493 C597.991616,57.149234 598.060606,57.4394783 597.977995,57.7258601 C599.382646,57.6326506 600.787663,57.548822 602.1988,57.6235 C602.6158,57.6455 603.0398,57.4275 603.4648,57.4085 C604.0678,57.3805 604.6458,57.1885 605.2878,57.3625 C605.8468,57.5135 606.4818,57.3665 607.0778,57.4105 C607.5838,57.4475 608.0928,57.5345 608.5798,57.6715 C608.7648,57.7235 608.9138,57.9635 609.0408,58.1445 C609.1928,58.3635 609.2808,58.6285 609.4428,58.8375 C609.5238,58.9425 609.7068,58.9695 609.8428,59.0315 C609.8998,58.8965 609.9878,58.7655 610.0088,58.6255 C610.1078,57.9385 610.1208,58.0205 610.8318,57.8535 C611.8148,57.6235 612.7948,57.6315 613.7838,57.6415 C614.0188,57.6435 614.2648,57.6495 614.4878,57.7145 C614.9768,57.8575 615.4658,58.0265 615.5278,58.6525 C615.5478,58.8575 615.5818,59.1025 615.8448,59.0225 C616.0028,58.9755 616.1328,58.7705 616.2288,58.6085 C616.2788,58.5225 616.2728,58.3475 616.2168,58.2635 C615.9988,57.9375 616.1378,57.8705 616.4508,57.8745 C616.8508,57.8805 617.2508,57.8675 617.6508,57.8685 C619.2108,57.8715 620.7708,57.8695 622.3308,57.8855 C622.7598,57.8895 623.1738,57.8795 623.6138,58.0485 C623.9778,58.1875 624.4838,58.1035 624.8838,57.9795 C626.1748,57.5805 627.4768,57.3205 628.8348,57.3995 C628.9938,57.4095 629.1728,57.3545 629.3108,57.4095 C630.2168,57.7705 631.0588,57.3295 631.9298,57.2425 C632.6408,57.1715 633.3718,57.0915 634.0708,57.1835 C635.1498,57.3255 636.2078,57.6185 637.2778,57.8345 C637.8158,57.9425 638.3598,58.0985 638.8988,58.0915 C639.4778,58.0845 640.0698,57.9645 640.6298,57.8015 C642.0578,57.3865 643.5178,57.3255 644.9778,57.4145 C645.6688,57.4555 646.3528,57.6895 647.0308,57.8685 C647.4098,57.9685 647.7738,57.9645 648.1388,57.8565 C648.6648,57.6995 649.2378,57.6145 649.6948,57.3385 C650.3498,56.9435 650.9308,57.1405 651.5718,57.2865 C652.6768,57.5385 653.7878,57.7535 654.9148,57.9175 C656.2218,58.1085 657.3568,57.6595 658.5408,57.3575 C658.8908,57.2675 659.1508,57.1775 659.5418,57.2955 C660.6218,57.6225 661.7318,57.8585 662.8388,58.0815 C663.1298,58.1405 663.5298,58.1275 663.7518,57.9685 C664.3648,57.5305 665.0528,57.4795 665.7498,57.3915 C666.2138,57.3335 666.6718,57.2235 667.1358,57.1605 C668.0978,57.0285 669.0118,57.3465 669.9458,57.4755 C670.3718,57.5345 670.7988,57.6265 671.2268,57.6345 C672.7648,57.6625 674.3018,57.5655 675.8068,58.0755 C676.4528,58.2935 677.1818,58.0805 677.7358,57.7035 C678.8128,56.9685 679.9058,57.0655 681.0078,57.5035 C681.8028,57.8195 682.6038,57.9305 683.4428,57.8735 C684.5328,57.7995 685.6238,57.9985 686.7138,57.8725 C687.6968,58.3755 688.6238,57.9725 689.5578,57.6955 C689.6328,57.6735 689.7108,57.6535 689.7888,57.6475 C690.9308,57.5635 692.0718,57.4515 693.2158,57.4095 C694.3338,57.3695 695.4618,57.3255 696.5728,57.4255 C697.4188,57.5025 698.2418,57.8135 699.0798,57.9985 C699.2938,58.0455 699.5358,58.0515 699.7478,58.0015 C700.4298,57.8405 701.0988,57.6155 701.7848,57.4745 C702.1678,57.3955 702.5868,57.3645 702.9658,57.4365 C703.7678,57.5895 704.5508,57.8355 705.3478,58.0145 C705.5118,58.0515 705.7118,57.9825 705.8838,57.9265 C707.8988,57.2805 709.9788,56.9505 712.0688,57.1985 C713.5378,57.3725 715.0138,57.2335 716.4518,57.4455 C717.4568,57.5935 718.4978,57.4675 719.4788,57.8445 C719.8428,57.9835 720.2488,57.8635 720.6268,57.6715 C720.8288,57.5685 721.1148,57.6145 721.1278,57.9715 C721.1318,58.0515 721.1318,58.1315 721.1358,58.2115 C721.1538,58.6245 721.4408,58.8485 721.7658,58.9855 C721.9458,59.0615 722.2318,58.4835 722.0508,58.0645 C721.8398,57.5785 722.0828,57.6135 722.3728,57.6405 C723.1158,57.7075 723.9258,57.6395 724.5808,57.9215 C725.4208,58.2835 726.1708,57.9975 726.8808,57.8235 C728.1548,57.5125 729.4258,57.5975 730.6718,57.7005 C731.3678,57.7585 732.0758,57.8315 732.7818,57.8755 C734.1238,57.9585 735.4658,58.0395 736.8068,58.1455 C737.4698,58.1985 740.5008,58.0335 741.2298,57.9035 C742.3218,57.7085 743.4198,57.5625 744.5348,57.6375 C744.7598,57.6535 744.9988,57.5755 745.1458,57.8715 C745.3288,58.2415 745.7848,58.2115 745.9578,58.0365 C746.4748,57.5145 746.9958,57.8645 747.4628,57.9795 C748.1438,58.1475 748.7628,58.1925 749.4188,57.9005 C751.0798,57.1615 752.8508,57.3595 754.5828,57.4285 C755.3808,57.4595 756.1648,57.8295 756.9598,58.0275 C757.1388,58.0715 757.4178,58.1225 757.5128,58.0295 C758.0958,57.4595 758.9208,57.5905 759.5938,57.2735 C759.9588,57.1025 760.4508,57.1475 760.8798,57.1775 C761.3448,57.2115 761.8278,57.2775 762.2558,57.4485 C762.6668,57.6125 763.3208,57.6365 763.1658,58.4035 C763.1418,58.5235 763.2998,58.6815 763.3758,58.8205 C763.5228,59.0885 763.7478,59.1115 763.9178,58.8775 C763.9638,58.8125 764.0498,58.7515 764.0538,58.6855 C764.1148,57.6425 764.8008,57.5845 765.6208,57.6235 C766.6188,57.6695 767.6198,57.6465 768.6198,57.6365 C768.9498,57.6345 769.1448,57.7045 769.1468,58.0925 C769.1478,58.2565 769.2458,58.4825 769.3738,58.5715 C769.6278,58.7465 769.7828,59.3275 770.1718,58.9845 C770.3548,58.8225 770.3108,58.3245 770.2598,57.9965 C770.2038,57.6365 770.1488,57.6385 770.3998,57.6365 C771.3098,57.6305 772.2208,57.5785 773.1058,57.8815 C774.5578,58.3785 776.0178,58.2035 777.4758,57.8995 C777.5528,57.8835 777.6348,57.8875 777.7148,57.8815 C778.8558,57.8005 779.9988,57.7335 781.1388,57.6325 C781.6038,57.5915 782.0698,57.5015 782.5238,57.3895 C784.5398,56.8915 786.5198,57.1395 788.4688,57.7135 C789.1068,57.9015 789.6938,57.9425 790.3148,57.7275 C790.4968,57.6645 790.7008,57.6545 790.8958,57.6445 C791.1748,57.6295 791.4558,57.6355 791.7358,57.6355 C792.6558,57.6345 793.5768,57.6645 794.4948,57.6245 C795.3588,57.5875 796.2208,57.4825 797.0818,57.3955 C797.8118,57.3225 798.5278,57.4955 799.1478,57.7885 C800.8668,58.6005 802.5898,58.4755 804.3418,58.0295 C804.9478,57.8755 805.5388,57.6675 806.1388,57.4925 C806.2868,57.4495 806.4618,57.3835 806.5948,57.4235 C808.0418,57.8655 809.5218,57.5905 810.9838,57.6235 C812.4498,57.6575 813.9148,57.6275 815.3608,57.9285 C815.4938,57.9565 815.6388,57.9525 815.7758,57.9425 C816.0918,57.9195 816.4748,57.9855 816.7078,57.8305 C817.1148,57.5595 817.1258,58.0655 817.3038,58.0545 C817.9258,58.0175 818.5608,57.9735 819.1598,57.8145 C820.0648,57.5745 820.9228,57.6255 821.8368,57.8025 C822.6468,57.9595 823.5248,57.9665 824.3398,57.8345 C825.6228,57.6275 826.8958,57.4165 828.1978,57.3945 C828.9848,57.3805 829.7588,57.3735 830.5498,57.1885 C831.7758,56.9025 833.0028,57.2685 834.1418,57.6805 C835.2758,58.0915 836.2638,57.8985 837.2568,57.3975 C837.8328,57.1075 838.3508,57.1055 838.9548,57.3605 C839.5228,57.5995 840.1568,57.7725 840.7688,57.7935 C841.3748,57.8135 842.0158,57.6845 842.5938,57.4845 C843.7238,57.0935 844.8228,57.3495 845.9258,57.5155 C847.1608,57.7015 848.3638,58.1075 849.5848,58.2925 C850.8098,58.4795 852.1178,58.5465 853.3408,58.0175 C853.8798,57.7845 854.4438,57.6065 855.0008,57.4175 C855.5648,57.2265 856.1408,57.1395 856.7438,57.1535 C857.8638,57.1785 858.9868,57.2045 860.1028,57.1415 C861.6658,57.0535 863.1448,57.4845 864.6538,57.7465 C866.0118,57.9815 867.3728,58.2345 868.7618,58.1085 C869.3068,58.0595 869.8468,57.9535 870.3898,57.8835 C870.7318,57.8385 870.9208,57.9715 870.8978,58.3455 C870.8818,58.6005 870.9198,58.8335 871.2628,58.8255 C871.5088,58.8195 871.6108,58.6825 871.6168,58.4495 C871.6258,58.0965 871.8858,58.1025 872.1258,58.1165 C872.8878,58.1615 873.6058,58.0335 874.3198,57.7385 C874.9228,57.4895 874.9978,57.5795 875.2258,58.2875 C875.2728,58.4305 875.3478,58.5805 875.4508,58.6875 C875.6868,58.9345 876.0078,58.8465 876.1658,58.5005 C876.2308,58.3565 876.1458,58.0005 876.4738,58.2955 C876.7708,58.5625 877.0538,58.8475 877.3238,59.1425 C877.7058,59.5605 877.7128,59.7625 877.3538,60.1615 C877.0868,60.4585 876.7398,60.6955 876.5188,61.0195 C875.9988,61.7825 875.2218,61.8615 874.4988,61.6455 C873.8998,61.4665 873.3288,61.4785 872.7418,61.4675 C871.7028,61.4465 870.6618,61.4665 869.6228,61.4495 C869.1938,61.4425 868.7788,61.4605 868.3388,61.2895 C867.9738,61.1485 867.4608,61.2175 867.0698,61.3545 C866.3478,61.6075 865.5958,61.5905 864.8768,61.7395 C863.9518,61.9325 863.0048,61.8395 862.0858,62.1205 C861.5368,62.2875 860.8578,62.2865 860.3088,62.1215 C859.7928,61.9665 859.2968,61.9945 858.7918,61.9315 C857.7428,61.8025 856.6988,61.6345 855.6488,61.5195 C855.1358,61.4635 854.5548,61.3335 854.1098,61.5065 C852.9358,61.9635 851.8508,61.5525 850.7488,61.3345 C850.1878,61.2245 849.6848,61.1465 849.1408,61.4115 C848.7598,61.5975 848.3138,61.6485 847.9098,61.7965 C847.1678,62.0675 846.4838,62.2615 845.6348,61.9965 C844.8718,61.7575 843.9938,61.9645 843.1788,61.7095 C842.6608,61.5485 842.0438,61.6445 841.5688,61.4185 C841.0198,61.1575 840.6038,61.2675 840.1098,61.4675 C839.3038,61.7945 838.4368,61.8785 837.5808,61.9225 C836.5828,61.9735 835.5798,61.9625 834.5818,61.9245 C833.9178,61.8995 833.2578,61.7725 832.5938,61.7045 C831.9308,61.6355 831.2558,61.8155 830.5978,61.4985 C830.3388,61.3735 829.9598,61.4305 829.6508,61.4875 C828.7678,61.6475 827.8938,61.8545 827.0148,62.0315 C826.8408,62.0665 826.6448,62.0845 826.4768,62.0415 C825.7198,61.8485 824.9388,61.7015 824.2268,61.3955 C823.7468,61.1895 823.2868,61.1885 822.8288,61.2385 C822.1728,61.3115 821.5298,61.4995 820.8808,61.6335 C820.7268,61.6645 820.5508,61.7295 820.4158,61.6855 C819.0908,61.2515 817.7278,61.5535 816.3868,61.4555 C816.2678,61.4465 816.1168,61.4985 816.0318,61.4425 C815.3328,60.9845 814.6618,61.5815 813.9768,61.4815 C812.8218,62.0315 811.5858,61.8995 810.3638,61.9445 C809.1808,61.9865 807.9918,62.0525 806.8238,62.2325 C806.4908,62.2835 806.2278,62.2325 805.9488,62.1665 C805.4168,62.0415 804.9028,61.8465 804.3718,61.7175 C803.5258,61.5115 802.6808,61.6885 801.8388,61.7855 C801.5688,61.8165 801.3048,61.9135 801.0348,61.9315 C800.3678,61.9755 799.7118,61.9575 799.0398,62.1335 C798.4568,62.2855 797.8028,62.2175 797.1748,61.9695 C796.5288,61.7145 795.8188,61.5255 795.1298,61.4975 C794.4798,61.4715 793.7698,61.5765 793.1778,61.8345 C792.3938,62.1755 791.6588,62.1125 790.9068,61.9075 C790.0838,61.6825 789.2738,61.4605 788.4168,61.6905 C788.3418,61.7105 788.2568,61.6985 788.1768,61.6925 C786.6178,61.5765 785.1178,61.8535 783.6508,62.3645 C783.5058,62.4145 783.3308,62.4345 783.1818,62.4065 C781.5698,62.1095 779.8888,62.1255 778.3728,61.3975 C777.8578,61.1505 777.4098,61.1695 776.9008,61.4125 C776.4448,61.6305 775.9438,61.7575 775.4568,61.9075 C774.8898,62.0825 774.3198,62.2145 773.7138,62.1935 C773.3678,62.1815 773.0188,62.2855 772.6718,62.3355 C772.4768,62.3635 772.2758,62.4355 772.0898,62.4065 C770.8518,62.2185 769.6158,62.0235 768.3848,61.8005 C767.6578,61.6695 766.8978,61.6815 766.2318,61.2525 C766.0628,61.1435 765.7408,61.1715 765.5278,61.2465 C764.4768,61.6165 763.4408,61.5675 762.3968,61.2375 C762.2868,61.2025 762.1578,61.2285 762.0388,61.2205 C760.8478,61.1445 759.6568,61.0505 758.4648,60.9975 C758.1198,60.9825 757.8538,60.9075 757.6238,60.6435 C757.1788,60.1325 756.5088,60.0505 755.9178,59.9455 C755.5778,59.8845 755.1058,60.1685 754.8038,60.4265 C754.5868,60.6125 754.7438,60.9865 755.0208,61.1245 C755.7328,61.4795 755.2178,61.4005 754.9218,61.5005 C754.6558,61.5895 754.4568,61.6125 754.1578,61.5615 C753.1138,61.3825 752.0218,61.1245 750.9978,61.2635 C748.6918,61.5755 746.3848,61.3135 744.0898,61.4885 C743.1688,61.5595 742.2188,61.6715 741.3348,62.0325 C740.5918,62.3365 739.8508,62.2955 739.0888,62.0415 C737.4758,61.5035 737.3208,61.5695 735.3418,61.8935 C734.4468,62.0395 733.4818,62.0505 732.5958,61.8775 C731.7948,61.7205 731.0848,61.7015 730.2858,61.8825 C729.6578,62.0245 728.9108,61.9735 728.2948,61.7715 C726.1678,61.0755 723.9908,61.2245 721.8178,61.2225 C720.6628,61.6605 719.4578,61.3745 718.2788,61.4655 C717.8938,61.4955 717.5128,61.6095 717.1298,61.6085 C716.7418,61.6075 716.3558,61.5065 715.9678,61.4575 C715.8498,61.4425 715.7138,61.4905 715.6098,61.4485 C714.2888,60.9155 713.0828,61.6245 711.8278,61.7895 C711.5188,61.8305 711.2118,61.9245 710.9028,61.9275 C709.5028,61.9455 708.1028,61.9465 706.7028,61.9395 C705.4378,61.9335 704.1978,62.1085 702.9688,62.3915 C702.8538,62.4175 702.7258,62.4315 702.6108,62.4105 C700.8788,62.0905 699.1038,62.0495 697.3908,61.5995 C697.0158,61.5015 696.5548,61.3665 696.2348,61.4965 C695.0388,61.9815 693.8648,61.6455 692.7428,61.3945 C691.3698,61.0855 690.0728,61.1695 688.7238,61.4355 C687.7888,61.6195 686.8188,61.6515 685.8618,61.6925 C684.9438,61.7325 684.0188,61.7445 683.1038,61.6805 C682.1368,61.6135 681.1978,61.7915 680.2858,61.9955 C679.4848,62.1745 678.7738,62.1705 677.9738,61.9975 C677.2188,61.8345 676.4028,61.9355 675.6368,61.6985 C675.4888,61.6535 675.2948,61.7115 675.1718,61.6375 C674.0738,60.9785 672.9828,61.4665 671.8778,61.5985 C670.9718,61.7075 670.0468,61.6385 669.1358,61.7105 C667.9258,61.8055 666.7088,61.8535 665.5208,62.1475 C665.2558,62.2135 664.9638,62.1705 664.6838,62.1745 C664.2438,62.1805 663.7398,62.0495 663.3778,62.2195 C662.6968,62.5395 662.1558,62.2515 661.5858,62.0335 C660.9618,61.7955 660.3718,61.3535 659.7378,61.2875 C659.1568,61.2265 658.4958,61.4615 657.9418,61.7195 C656.6558,62.3195 655.4428,61.8885 654.2078,61.6025 C654.0178,61.5585 653.8318,61.4935 653.6408,61.4645 C651.7878,61.1815 649.9138,61.0925 648.0578,61.2495 C646.1948,61.4075 644.2678,61.3445 642.5318,62.2365 C642.3138,62.3475 642.1928,62.2675 642.0048,62.2165 C641.4388,62.0625 640.8498,61.9925 640.2878,61.8295 C639.6188,61.6355 638.9818,61.6755 638.3068,61.8185 C637.5048,61.9885 636.7018,62.3135 635.8688,62.1655 C633.2548,61.6995 630.6218,62.0175 627.9998,61.9505 C627.1808,61.9295 626.3568,62.0985 625.5348,62.1815 C624.9648,62.2395 624.4468,62.1085 623.9358,61.8385 C623.3808,61.5455 622.7918,61.3125 622.2058,61.0825 C622.0388,61.0165 621.8268,61.0225 621.6418,61.0475 C621.4118,61.0775 621.1718,61.1255 620.9658,61.2275 C619.6368,61.8865 618.3198,61.6175 616.9798,61.2495 C615.6258,60.8775 614.2178,60.8785 612.8468,61.0115 C611.2578,61.1655 609.6318,61.3175 608.1648,62.0365 C607.5098,62.3575 606.8818,62.1275 606.5138,61.7925 C605.9088,61.2425 605.2358,61.1205 604.5158,60.9825 C604.2898,60.9395 604.0598,60.8685 603.8548,60.7635 C603.1978,60.4265 602.5558,60.0595 601.8968,59.7255 C601.8008,59.6775 601.6178,59.7105 601.5218,59.7755 C601.3588,59.8845 601.2298,60.0465 601.0908,60.1895 C600.5058,60.7875 600.5238,60.9415 601.2638,61.2695 C601.5078,61.3775 601.7848,61.4415 602.0508,61.4605 C602.4888,61.4925 602.9308,61.4635 603.3698,61.4755 C603.4798,61.4785 603.5878,61.5405 603.6968,61.5745 C603.5978,61.6145 603.4998,61.6845 603.3998,61.6885 C602.7688,61.7125 602.1558,61.7595 601.5258,61.8965 C600.5708,62.1035 599.5688,62.1625 598.5868,62.1645 C597.4508,62.1665 596.3268,61.8285 595.2088,61.7775 C594.0538,61.7245 592.8918,61.0855 591.7178,61.6815 C591.6528,61.7145 591.5508,61.7155 591.4818,61.6895 C590.1158,61.1695 588.8838,61.8525 587.6038,62.1055 C587.3348,62.1585 587.0088,62.2475 586.7858,62.1465 C586.1308,61.8515 585.4558,61.9965 584.7918,61.9355 C584.2478,61.8845 583.6938,61.8235 583.1698,61.6765 C582.1798,61.3985 581.1928,61.1675 580.1538,61.2185 C579.9298,61.2295 579.7028,61.1115 579.4738,61.0715 C579.2428,61.0305 578.9978,60.9555 578.7748,60.9915 C577.4248,61.2065 576.0808,61.4545 574.7328,61.6775 C574.4978,61.7165 574.2518,61.7145 574.0138,61.6965 C572.5928,61.5905 571.1508,61.9485 569.7438,61.5005 C569.6558,61.4725 569.5298,61.5915 569.4178,61.5995 C568.9448,61.6355 568.4198,61.7955 568.0098,61.6465 C567.4128,61.4295 566.8338,61.5155 566.2478,61.4655 C565.7798,61.4245 565.3138,61.3455 564.8448,61.3255 C564.6318,61.3165 564.4168,61.4285 564.1988,61.4475 C563.1778,61.5375 562.1578,61.6465 561.1338,61.6855 C559.9908,61.7295 558.8728,61.5065 557.7618,61.2515 C557.4948,61.1905 557.2038,61.2245 556.9248,61.2225 C555.8448,61.2175 554.7628,61.2575 553.6858,61.2025 C552.7598,61.1545 551.8858,61.3895 551.0058,61.5785 C550.4098,61.7065 549.8508,61.7445 549.2608,61.5735 C548.7378,61.4225 548.1988,61.2935 547.6588,61.2365 C547.3188,61.2005 546.9628,61.3125 546.6158,61.3655 C546.5398,61.3765 546.4708,61.4245 546.3958,61.4475 C545.6498,61.6825 544.9048,62.0945 544.1588,62.0965 C543.4128,62.0995 542.6418,61.7465 541.9268,61.4425 C541.4238,61.2285 540.9328,61.2185 540.4208,61.2155 C540.0208,61.2145 539.6158,61.2665 539.2218,61.2185 C538.3748,61.1165 537.5448,61.2585 536.7638,61.5075 C536.0058,61.7495 535.3128,61.6165 534.5648,61.5735 C533.6168,61.5195 532.7198,61.0915 531.6878,61.4105 C530.8848,61.6585 529.9428,61.4845 529.0638,61.4545 C527.5128,61.4025 525.9898,61.5025 524.5258,62.0785 C524.3568,62.1455 524.1368,62.1545 523.9598,62.1115 C523.4668,61.9945 522.9568,61.8935 522.5008,61.6825 C521.4408,61.1925 520.3328,61.3865 519.2798,61.5275 C518.6968,61.6055 518.1108,61.6455 517.5268,61.7015 C517.0208,61.7505 516.5068,61.6045 516.0038,61.8865 C515.8128,61.9945 515.4498,61.9105 515.2108,61.8055 C513.4328,61.0285 511.5498,61.1815 509.7038,61.2645 C508.9628,61.2985 508.2288,61.7595 507.5178,62.0845 C507.0748,62.2885 506.7028,62.3925 506.2018,62.2005 C505.4408,61.9075 504.6298,61.7405 503.8378,61.5305 C503.6898,61.4905 503.5188,61.4605 503.3748,61.4955 C502.3818,61.7305 501.3858,61.9235 500.3588,61.9525 C500.0148,61.9625 499.6708,62.0865 499.3318,62.1765 C498.3838,62.4295 497.4248,62.2285 496.6238,61.8425 C495.5488,61.3245 494.5378,61.5405 493.5318,61.7695 C493.0578,61.8765 492.6018,61.9335 492.1338,61.9365 C489.7738,61.9485 487.4138,61.9665 485.0548,61.9225 C484.5588,61.9125 484.0918,62.2085 483.5758,61.9725 C483.1148,61.7605 482.6158,61.6325 482.1288,61.4805 C481.1318,61.1685 480.1478,61.1815 479.1048,61.3695 C477.9078,61.5845 476.7398,62.0335 475.5578,62.1165 C473.9598,62.2295 472.3358,62.3845 470.7228,61.8125 C469.4008,61.3425 467.9808,61.0725 466.5418,61.2315 C465.9208,61.3005 465.3068,61.4295 464.6878,61.5175 C463.6398,61.6645 462.5918,61.8065 461.5428,61.9395 C460.7028,62.0475 459.8748,61.9045 459.0818,61.6725 C458.0628,61.3745 457.0848,61.4315 456.0508,61.6165 C455.2018,61.7685 454.2948,61.7425 453.4328,61.6365 C452.3548,61.5025 451.2908,61.2285 450.2328,60.9665 C449.9028,60.8845 449.6108,60.6465 449.3028,60.4775 C448.7798,60.1895 448.2358,59.9905 447.6258,60.0225 C446.9618,60.0575 446.9168,60.1245 446.9958,60.8635 C447.0078,60.9715 446.8748,61.1955 446.8128,61.1935 C446.1628,61.1785 445.5188,61.3375 444.8678,61.2345 C443.9838,61.0955 443.1528,61.4255 442.3048,61.5695 C441.3548,61.7305 440.4338,61.7885 439.5028,61.4755 C438.9508,61.2905 438.3838,61.1275 437.8108,61.0415 C437.5258,60.9995 437.1988,61.1205 436.9128,61.2265 C434.7848,62.0075 432.5728,61.9695 430.3538,61.9535 C429.1228,61.9445 427.9288,61.7935 426.7318,61.5145 C426.2138,61.3945 425.6428,61.3525 425.0978,61.6295 C424.7198,61.8205 424.2818,61.9055 423.8628,61.9995 C423.4828,62.0845 423.0548,62.2485 422.7118,62.1515 C420.9698,61.6535 419.1938,61.7095 417.4148,61.6895 C416.8728,61.6835 416.3108,61.5915 415.7938,61.4255 C414.6918,61.0725 413.6008,61.0955 412.5468,61.4945 C411.9778,61.7095 411.5058,61.6825 410.9558,61.4845 C410.3348,61.2615 409.6808,61.0535 409.0308,61.0155 C408.4618,60.9815 407.8528,61.1165 407.3068,61.3085 C406.3538,61.6435 405.3848,61.6725 404.3958,61.7215 C403.4628,61.7675 402.5408,62.0115 401.6078,62.0975 C400.8178,62.1695 399.9568,62.3395 399.2348,62.1185 C397.0808,61.4585 394.8968,61.7395 392.7298,61.7425 C392.0858,61.7435 391.4718,61.9705 390.7888,61.7315 C390.1698,61.5145 389.4608,61.8395 388.7978,61.5075 C388.5098,61.3635 388.0808,61.4245 387.7348,61.4885 C386.2198,61.7695 384.9968,61.6475 383.5128,61.5255 C382.1048,61.4105 380.6718,61.3215 379.2388,61.6315 C377.8258,61.9365 376.3618,61.9905 374.9798,61.4265 C374.4598,61.2145 374.0298,61.1775 373.5078,61.3945 C372.7878,61.6945 372.0308,62.0885 371.2868,62.0965 C370.5878,62.1035 369.8758,61.6835 369.1868,61.4075 C368.4898,61.1285 367.8108,61.1565 367.1038,61.3505 C366.5778,61.4935 366.0368,61.6565 365.5008,61.6645 C364.9638,61.6715 364.4238,61.4955 363.8838,61.4035 C363.4988,61.3375 363.1158,61.2455 362.7278,61.2225 C362.2498,61.1935 361.7658,61.2585 361.2888,61.2205 C359.8468,61.1055 358.4618,61.3565 357.0968,61.7915 C356.8408,61.8735 356.5478,61.9505 356.2928,61.9065 C354.6938,61.6295 353.2878,61.6255 351.8368,61.9105 C351.5658,61.9635 351.2788,61.9335 350.9988,61.9335 C349.7588,61.9355 348.5158,61.8815 347.2798,61.9475 C345.7958,62.0275 344.3768,61.7225 342.9678,61.3585 C342.6348,61.2725 342.3988,61.2425 342.0788,61.3855 C341.3268,61.7225 340.5478,61.9985 339.7788,62.2955 C339.6718,62.3365 339.5488,62.4025 339.4468,62.3835 C338.7968,62.2645 338.1518,62.1125 337.5008,61.9985 C337.1908,61.9455 336.8688,61.9345 336.5518,61.9375 C333.6868,61.9665 330.8348,61.5335 327.9658,61.6945 C327.7388,61.7075 327.5018,61.6285 327.2748,61.5705 C326.0078,61.2485 324.7668,61.0565 323.4418,61.4225 C322.5448,61.6695 321.5648,61.6755 320.6218,61.6795 C318.9578,61.6865 317.3178,61.8175 315.6858,62.1545 C314.9638,62.3035 314.2058,62.3715 313.4708,62.3365 C312.7388,62.3025 312.0168,62.0825 311.2868,61.9675 C311.0128,61.9245 310.7288,61.9435 310.4488,61.9425 C309.0088,61.9385 307.5678,61.8995 306.1298,61.9465 C304.9258,61.9845 303.7818,61.7275 302.6578,61.3755 C302.2488,61.2475 301.9328,61.2005 301.5308,61.3855 C300.8928,61.6795 300.2238,61.9125 299.5538,62.1295 C299.2088,62.2415 298.8108,62.2675 298.5898,61.8885 C298.1478,61.1325 297.3688,61.0965 296.6568,61.0095 C296.1268,60.9445 295.6648,60.8475 295.2358,60.5085 C294.9668,60.2945 294.6268,60.1535 294.2988,60.0345 C293.4108,59.7135 293.4068,59.7255 292.7188,60.2775 C292.4318,60.5085 292.4208,60.8275 292.7008,61.0645 C293.1568,61.4515 293.6988,61.5105 294.2698,61.4765 C294.3738,61.4705 294.4828,61.5485 294.5888,61.5865 C294.4798,61.6225 294.3718,61.6835 294.2608,61.6885 C293.4898,61.7275 292.7228,61.6015 291.9438,61.6845 C291.1928,61.7645 290.4258,61.6885 289.6658,61.7065 C289.1978,61.7185 288.7348,61.6485 288.2618,61.8755 C287.9688,62.0165 287.5368,61.9945 287.2028,61.9075 C285.5088,61.4655 283.7958,61.7695 282.0938,61.7425 C281.4428,61.7315 280.7928,61.6845 280.1398,61.6895 C279.5128,61.6935 278.8858,61.5905 278.2588,61.5355 C277.9838,61.5115 277.7088,61.4835 277.4338,61.4675 C276.4918,61.4105 275.5538,61.5445 274.6038,61.2615 C274.0808,61.1055 273.4528,61.1545 272.8588,61.4155 C272.1498,61.7275 271.3658,61.8705 270.6128,62.0815 C270.4628,62.1235 270.2998,62.1885 270.1548,62.1665 C269.4218,62.0545 268.6938,61.9085 267.9618,61.7935 C267.6528,61.7445 267.3058,61.6465 267.0278,61.7335 C265.3538,62.2565 263.7458,61.8395 262.1548,61.4035 C261.7068,61.2805 261.3528,61.1825 260.9198,61.4025 C260.6108,61.5585 260.2098,61.5475 259.9158,61.7215 C259.0798,62.2165 258.1778,62.1945 257.2628,62.1855 C255.9038,62.1705 254.5308,62.2885 253.1868,62.1425 C251.9028,62.0025 250.6068,62.0255 249.3268,61.7395 C247.4948,61.3295 245.6118,61.3995 243.7478,61.4815 C242.9778,61.5155 242.2218,61.7975 241.4508,61.8995 C240.9398,61.9675 240.3688,62.0455 239.9068,61.8845 C239.3898,61.7055 238.8948,61.7485 238.3888,61.6975 C237.6848,61.6265 236.9468,61.6325 236.2968,61.3995 C235.8918,61.2535 235.6308,61.3585 235.3078,61.4525 C234.9688,61.5505 234.6158,61.6165 234.2948,61.7545 C233.1148,62.2645 231.8538,62.2945 230.6068,62.4085 C230.1708,62.4475 229.7248,62.3815 229.2888,62.4205 C227.6458,62.5675 226.0808,62.1695 224.5118,61.7855 C224.3218,61.7395 224.1238,61.7035 223.9298,61.7055 C220.8648,61.7475 217.8128,61.2845 214.7448,61.4585 C214.1198,61.4945 213.4668,61.2875 212.8728,61.6685 C212.7888,61.7225 212.6258,61.7115 212.5208,61.6715 C211.4368,61.2555 210.3108,61.4895 209.2098,61.4975 C208.5658,61.5015 207.9208,61.7885 207.2798,61.9595 C205.8708,62.3365 204.4208,62.4035 203.0908,61.8485 C201.6418,61.2445 200.3188,61.4965 198.9848,62.0195 C198.3888,62.2535 197.7938,62.2365 197.2268,62.1415 C196.0728,61.9485 194.9478,61.6095 193.7928,61.3945 C193.3248,61.3075 192.8628,61.2165 192.3988,61.2385 C191.7328,61.2715 191.0418,61.0545 190.4008,61.3995 C189.7638,61.0585 189.0738,61.3015 188.4138,61.2135 C188.0278,61.1615 187.6458,61.0705 187.2588,61.0385 C186.9918,61.0165 186.7108,61.0285 186.4528,61.0915 C186.1128,61.1755 185.7768,61.3025 185.4578,61.4505 C184.1748,62.0435 182.8778,61.8935 181.5688,61.5645 C181.3038,61.4985 181.0238,61.4855 180.7498,61.4685 C179.5298,61.3935 178.3138,61.5345 177.0808,61.2695 C176.3588,61.1135 175.5358,61.4135 174.7608,61.5245 C173.3278,61.7295 171.9538,62.2795 170.4678,62.1975 C170.0118,62.1725 169.5388,62.4275 169.0838,62.3985 C167.1028,62.2705 165.1258,62.1255 163.1368,62.1615 C162.6828,62.1695 162.1908,62.0395 161.7738,61.8485 C160.3988,61.2185 158.9558,61.5215 157.5408,61.4775 C157.2058,61.4675 156.8488,61.6235 156.5288,61.7635 C155.3978,62.2565 154.2778,62.2805 153.0688,61.9955 C152.3678,61.8305 151.5868,61.8395 150.8298,62.0805 C149.8978,62.3765 148.9708,62.4055 148.0008,61.9835 C147.0328,61.5615 145.9718,61.3535 144.8818,61.4575 C144.3248,61.5115 143.7718,61.4725 143.2798,61.1515 C143.2128,61.1075 143.1368,61.0215 143.0768,61.0315 C142.0808,61.1855 141.3938,60.4805 140.5678,60.1605 C140.1298,59.9905 139.6938,59.6465 139.1488,60.0105 C138.5908,60.3835 138.5158,60.4815 138.9268,61.1235 C139.0928,61.3825 139.0068,61.3805 138.8038,61.5065 C137.9998,62.0015 137.0928,62.0755 136.2018,62.1605 C135.4478,62.2315 134.6818,62.1995 133.9238,62.1725 C133.5368,62.1585 133.1538,62.0065 132.7678,61.9985 C132.0198,61.9845 131.2588,61.9565 130.5238,62.0685 C129.7668,62.1845 129.0638,62.2245 128.3168,61.9715 C127.4668,61.6835 126.5978,61.3725 125.6688,61.4675 C124.9268,61.5435 124.1798,61.6005 123.4488,61.7415 C122.1818,61.9875 121.4588,61.9915 119.9488,61.7245 C119.2938,61.6085 118.6268,61.6765 117.9528,61.5145 C117.2428,61.3445 116.4778,61.3725 115.7348,61.2595 C114.9278,61.1365 114.0938,61.1945 113.2708,61.4495 C112.1268,61.8055 110.9658,61.7395 109.7688,61.5235 C109.1648,61.4145 108.4968,61.1685 107.8368,61.3945 C107.1968,61.6135 106.4738,61.2385 105.8588,61.6645 C105.8298,61.6855 105.7828,61.6815 105.7428,61.6845 C104.4808,61.7675 103.1958,62.0445 101.9618,61.8955 C99.0958,61.5495 96.2318,61.8005 93.3708,61.6905 C93.0978,61.6795 92.8288,61.5905 92.5568,61.5795 C92.0138,61.5595 91.4618,61.5075 90.9288,61.5785 C90.0358,61.6965 89.1698,62.0475 88.2518,61.9335 C87.5148,61.8415 86.7868,61.6845 86.0538,61.5655 C85.7838,61.5205 85.4748,61.4065 85.2418,61.4885 C84.1898,61.8605 83.1098,61.6195 82.0468,61.7015 C81.5788,61.7385 81.1198,61.6665 80.6438,61.8795 C80.3188,62.0255 79.8648,61.9055 79.4718,61.8695 C79.0838,61.8345 78.6988,61.7005 78.3138,61.7065 C77.3198,61.7205 76.3708,61.5245 75.4108,61.2905 C74.6298,61.1015 73.8348,61.0605 73.0228,61.3835 C71.8818,61.8375 70.6738,62.0365 69.4288,61.9375 C68.1568,61.8365 66.9148,62.0745 65.6718,62.3005 C65.4308,62.3445 65.1638,62.2125 64.9068,62.1935 C63.6858,62.1035 62.4608,61.9335 61.2418,61.9655 C59.7598,62.0035 58.3458,61.6995 56.9198,61.4035 C56.5768,61.3325 56.2308,61.2605 55.8828,61.2255 C54.1708,61.0555 52.4838,61.4235 50.7818,61.4885 C50.0918,61.5135 49.4158,61.8055 48.7238,61.9025 C48.2128,61.9745 47.6748,61.9995 47.1688,61.9205 C45.6638,61.6845 44.1638,61.4115 42.6748,61.0905 C42.3998,61.0315 42.2448,61.0875 42.0288,61.1825 C41.1358,61.5735 40.2338,61.9455 39.3348,62.3235 C38.4718,61.9345 37.6098,61.5435 36.7458,61.1585 C36.6068,61.0975 36.4438,61.0015 36.3128,61.0265 C35.4718,61.1915 34.6388,61.3965 33.7978,61.5645 C33.4538,61.6335 33.0628,61.7525 32.7538,61.6555 C31.8108,61.3605 30.9128,61.3965 29.9678,61.6605 C29.3338,61.8375 28.6528,61.6825 27.9778,61.8915 C27.2398,62.1195 26.4218,62.0795 25.6418,62.1805 C24.5048,62.3295 23.4698,61.8515 22.4018,61.6235 C22.0548,61.5495 21.8278,61.5975 21.5298,61.6785 C20.5848,61.9335 19.6538,62.3095 18.6428,62.1765 C18.1388,62.1115 17.5818,62.1295 17.1488,61.9115 C16.2498,61.4565 15.4458,61.9095 14.6298,62.0595 C13.8308,62.2065 13.0218,62.3135 12.2758,62.0915 C10.4818,61.5565 8.6588,61.6865 6.8448,61.7315 C6.2738,61.7455 5.6958,61.9425 5.0978,61.9575 C4.6758,61.9675 4.4208,61.7765 4.1848,61.4975 C3.8008,61.0455 3.4288,60.5835 3.0488,60.1295 C2.7608,59.7865 2.7898,59.6635 3.1598,59.3665 C4.4028,58.3665 5.8128,57.7105 7.3408,57.2905 C7.4918,57.2485 7.6478,57.1535 7.7908,57.1705 C8.6078,57.2665 9.4198,57.3985 10.2358,57.5015 C10.7028,57.5595 11.2378,57.7465 11.6318,57.5935 C12.6598,57.1935 13.5558,57.5375 14.4858,57.8445 C14.7838,57.9435 15.0878,58.0195 15.3888,58.1085 C16.1638,58.3405 16.8938,58.2265 17.6318,57.9065 C18.0178,57.7395 18.4698,57.6395 18.8878,57.6505 C19.7508,57.6735 20.6198,57.5095 21.4868,57.8145 C21.8068,57.9275 22.2398,57.6885 22.6258,57.6455 C24.1058,57.4835 25.5438,57.7725 26.9418,58.1925 C27.8188,58.4565 28.6838,58.3845 29.5388,58.3015 C30.7068,58.1895 31.8128,57.7455 32.9068,57.3365 C33.4358,57.1375 33.8578,57.1555 34.3848,57.3285 C35.2348,57.6085 36.0748,58.0405 37.0198,57.8705 C37.6338,57.7605 38.2398,57.6055 38.8538,57.4985 C39.2018,57.4385 39.5998,57.3195 39.9048,57.4265 C40.8418,57.7535 41.7938,57.6025 42.7388,57.6345 C43.4978,57.6605 44.2588,57.6275 45.0178,57.6365 C45.5618,57.6435 46.0908,57.5565 46.5888,57.9995 C46.8578,58.2385 47.3348,58.2255 47.7328,57.8335 C48.1978,57.3755 48.8988,57.5715 49.4328,57.6935 C50.3078,57.8915 51.1318,57.9785 51.9828,57.6635 C52.1248,57.6115 52.2998,57.6415 52.4598,57.6425 C53.8028,57.6515 55.1168,57.3945 56.4418,57.2295 C56.8878,57.1745 57.3598,57.3835 57.8198,57.3835 C59.0078,57.3855 60.1548,57.6185 61.3198,57.8145 C62.3698,57.9915 63.4868,57.9625 64.5478,57.8255 C65.9658,57.6425 68.0528,57.5915 69.4888,57.8425 C70.4368,58.0085 71.4348,57.9425 72.2868,57.5485 C73.4248,57.0235 74.5138,57.0975 75.6198,57.4435 C76.5258,57.7275 77.3838,57.6635 78.2938,57.4745 C78.9448,57.3385 79.6668,57.3085 80.3108,57.4465 C80.8188,57.5555 81.3418,57.5295 81.8198,57.6625 C83.0798,58.0135 84.3518,57.8585 85.6148,57.8515 C86.9968,57.8445 88.4018,57.8395 89.7528,57.5915 C90.7888,57.4015 91.8288,57.2795 92.8208,57.4405 C94.2658,57.6745 95.7458,57.4275 97.1658,57.8505 C97.3498,57.9045 97.5628,57.8665 97.7628,57.8675 C98.8828,57.8725 100.0028,57.8675 101.1228,57.8835 C102.2718,57.9005 103.4128,57.9125 104.5008,57.4325 C104.8428,57.2815 105.0238,57.4375 105.0498,57.8035 C105.0688,58.0815 105.0188,58.3745 105.0888,58.6375 C105.1318,58.7965 105.3768,59.0375 105.4778,59.0135 C105.6708,58.9685 105.9148,58.7935 105.9808,58.6145 C106.1578,58.1315 105.8718,57.7845 105.5188,57.4815 C105.4558,57.4275 105.4518,57.3055 105.4208,57.2145 C105.4968,57.1975 105.5768,57.1565 105.6488,57.1675 C106.4208,57.2835 107.1928,57.4075 107.9658,57.5295 C108.1968,57.5655 108.4288,57.6205 108.6618,57.6305 C109.5688,57.6695 110.4698,57.6325 111.3758,57.8465 C112.2508,58.0535 113.1818,57.6855 114.0878,58.0485 C114.3918,58.1705 114.8368,57.8825 115.2188,57.8785 C116.9388,57.8605 118.6588,57.8605 120.3778,57.8915 C120.8808,57.9005 121.3838,58.1115 121.8838,58.0975 C122.8258,58.0695 123.7958,58.0645 124.6998,57.8345 C126.2168,57.4485 127.6598,57.6735 129.1248,58.0205 C129.3798,58.0815 129.6818,58.1015 129.9268,58.0255 C130.9878,57.7015 132.1158,57.7285 133.1158,57.9565 C134.0868,58.1785 134.9118,58.0125 135.7528,57.7435 C137.1108,57.3085 138.4488,57.2315 139.8238,57.6095 C140.0468,57.6705 140.3158,57.6765 140.5378,57.6145 C142.1468,57.1685 143.7848,57.4795 145.4068,57.4155 C145.7848,57.4015 146.1708,57.5675 146.5528,57.6495 C146.8668,57.7165 147.0248,57.9065 147.0538,58.2275 C147.0718,58.4205 147.0888,58.6285 147.1748,58.7945 C147.2208,58.8825 147.4118,58.8985 147.5408,58.9355 C147.5598,58.9405 147.5998,58.8865 147.6248,58.8565 C147.8208,58.6155 147.9708,58.2475 148.2198,58.1615 C148.5788,58.0365 149.0088,58.1025 149.4078,58.1105 C150.4788,58.1315 151.5178,57.9505 152.5448,57.6625 C152.7788,57.5965 153.0538,57.6135 153.0438,57.9715 C153.0268,58.5225 153.2778,58.8685 153.7938,59.0325 C153.8238,59.0415 153.8888,59.0225 153.8968,59.0015 C154.0788,58.5365 154.1358,58.0865 153.7258,57.6955 C153.5728,57.5495 153.5538,57.4265 153.8168,57.4095 C154.4528,57.3685 155.1028,57.3355 155.6758,57.6555 C156.8858,58.3325 158.1008,58.0845 159.3178,57.7325 C160.0848,57.5095 160.8008,57.5335 161.5748,57.7995 C162.3808,58.0765 163.2038,58.4035 164.0938,58.3475 C163.8328,58.5695 163.5648,58.7835 163.3178,59.0195 C163.2688,59.0655 163.2628,59.2495 163.3028,59.2785 C163.5548,59.4575 163.8098,59.6485 164.0938,59.7645 C164.4378,59.9055 164.8918,59.7065 165.0108,59.4205 C165.1918,58.9865 165.0128,58.5305 164.5668,58.3665 C164.4258,58.3145 164.2528,58.3515 164.0938,58.3475 C164.1928,58.0115 164.4708,58.1245 164.6878,58.1245 C166.8478,58.1185 169.0208,58.2675 171.1638,58.0785 C173.1408,57.9035 175.1828,58.0505 177.0908,57.2725 C177.3518,57.1665 177.7068,57.2075 177.9978,57.2715 C179.5588,57.6145 181.1058,58.0285 182.6748,58.3255 C183.1948,58.4245 183.7678,58.2675 184.3128,58.1975 C185.0118,58.1075 185.7098,58.0025 186.4028,57.8755 C187.0918,57.7495 187.7748,57.5835 188.4618,57.4465 C188.6558,57.4085 188.8608,57.3775 189.0538,57.4015 C189.9478,57.5135 190.8428,57.6285 191.7318,57.7775 C192.7698,57.9505 193.8018,58.1635 194.8378,58.3495 C194.9928,58.3775 195.1658,58.3875 195.3158,58.3485 C196.6488,57.9985 198.0648,58.2475 199.3838,57.7605 C199.7888,57.6115 200.2668,57.3935 200.6438,57.9585 C200.7388,58.1005 201.1858,58.1315 201.4018,58.0435 C201.9918,57.8035 202.5388,57.7735 203.1128,58.0615 C203.2438,58.1275 203.4398,58.1405 203.5808,58.0975 C205.5908,57.4815 207.6578,57.6435 209.7108,57.6455 C211.3328,57.6475 212.9248,57.3955 214.5288,57.2005 C216.0178,57.0195 217.5358,57.1045 219.0118,57.4885 C219.2008,57.5365 219.3868,57.6155 219.5778,57.6285 C220.8798,57.7205 222.1908,57.7375 223.4828,57.9045 C224.2668,58.0055 225.0388,58.1165 225.8328,58.1185 C226.7128,58.1205 227.5458,58.0435 228.3748,57.6775 C229.0498,57.3795 229.7538,57.3655 230.5488,57.5665 C231.6638,57.8485 232.8358,58.1285 234.0388,57.6715 C234.6438,57.4405 235.3508,57.4705 236.0138,57.4035 C237.5818,57.2455 239.0928,57.4735 240.5108,58.1675 C240.8738,58.3455 241.1398,58.3525 241.5068,58.1785 C242.0348,57.9275 242.6788,57.8785 243.1498,57.5615 C243.6888,57.1985 244.2188,57.2915 244.6998,57.4225 C245.7998,57.7235 246.9058,57.6415 248.0108,57.6335 C249.2408,57.6245 250.4378,57.7535 251.6308,58.0715 C252.1178,58.2015 252.6648,58.1215 253.1838,58.1185 C253.9048,58.1155 254.5748,58.2065 255.0108,58.8875 C255.0468,58.9435 255.2758,58.9605 255.2898,58.9335 C255.8818,57.7445 257.1748,57.7825 258.1578,57.2815 C258.2278,57.2455 258.2968,57.1955 258.3718,57.1795 C258.8208,57.0815 258.9748,57.2665 258.9128,57.8135 C258.8988,57.9325 258.8988,58.0535 258.8938,58.1735 C258.8758,58.6035 259.2068,58.8015 259.4918,59.0025 C259.5658,59.0555 259.7998,58.9745 259.8958,58.8845 C260.2038,58.5955 260.1398,58.2385 259.9848,57.8985 C259.9368,57.7955 259.8038,57.7315 259.7548,57.6285 C259.7318,57.5815 259.8198,57.4155 259.8528,57.4165 C260.2458,57.4325 260.6388,57.4675 261.0308,57.5025 C262.5218,57.6335 264.0068,57.9725 265.5048,57.8355 C265.9978,57.7905 266.5048,57.5905 267.0118,57.6455 C267.6708,57.7175 268.3268,57.8475 268.9738,57.9985 C269.5648,58.1375 270.1368,58.2955 270.6308,57.7775 C271.6028,57.6985 272.4918,57.0475 273.5538,57.4925 C273.749169,57.5745025 273.955424,57.6304617 274.167406,57.6727566 C274.108268,56.9273383 273.913707,56.2206035 273.5798,55.5363 C273.4638,55.2983 273.4648,55.0033 273.3938,54.6393 C273.5258,54.3343 273.6078,53.9173 273.8478,53.6373 C274.2448,53.1753 274.1118,52.7293 274.0898,52.2063 C274.0208,50.5093 273.4388,48.8863 273.4498,47.1833 C273.4538,46.5673 273.7068,46.0393 273.9208,45.4933 C274.1308,44.9563 274.2008,44.4313 273.7558,43.9843 C273.4918,43.7193 273.4798,43.5203 273.6288,43.1563 C273.7908,42.7643 274.0428,42.3183 273.7318,41.8253 C273.6378,41.6753 273.7578,41.3693 273.8198,41.1463 C273.9468,40.6933 274.0528,40.2253 274.2598,39.8093 C274.4138,39.5003 274.4068,39.3023 274.1608,39.0833 C274.0118,38.9513 273.8858,38.7923 273.7358,38.6603 C273.4968,38.4493 273.4258,38.2563 273.6158,37.9423 C273.7948,37.6453 273.8248,37.2613 273.9958,36.9573 C274.3058,36.4033 274.2138,35.8963 273.9338,35.3793 C273.8018,35.1353 273.6718,34.8893 273.5628,34.6343 C273.4148,34.2903 273.3438,33.9243 273.6588,33.6423 C273.9778,33.3573 274.0518,32.9583 273.9148,32.6593 C273.6498,32.0813 273.8928,31.6053 274.0378,31.0953 C274.0808,30.9453 274.1238,30.7953 274.1778,30.6483 C274.3978,30.0553 274.4188,29.5183 273.7988,29.1313 C273.5148,28.9543 273.4558,28.6993 273.6938,28.4563 C274.1858,27.9523 274.2408,27.3403 274.1838,26.6923 C274.1338,26.1163 274.3308,25.5123 273.8178,24.9973 C273.6708,24.8503 273.7678,24.4063 273.8358,24.1173 C273.8948,23.8623 274.0618,23.6303 274.1948,23.3963 C274.5318,22.8003 274.5138,22.2743 273.9398,21.8193 C273.6458,21.5873 273.6248,21.2933 273.8248,20.9703 C274.1018,20.5233 274.3378,20.0793 273.9738,19.5403 C273.9018,19.4333 274.0258,19.1653 274.1048,18.9923 C274.4588,18.2213 274.3138,17.4863 273.9648,16.7673 C273.7688,16.3673 273.6818,15.9623 273.6838,15.5103 C273.6848,15.1273 273.5278,14.7463 273.4988,14.3603 C273.4608,13.8443 273.2998,13.2323 273.5088,12.8243 C274.1308,11.6113 273.6718,10.4743 273.4898,9.3063 C273.4648,9.1493 273.4428,8.9843 273.4628,8.8293 C273.5608,8.1043 273.7148,7.3843 273.4658,6.6543 C273.4208,6.5233 273.4578,6.3123 273.5408,6.1993 C274.2818,5.1833 273.8948,4.0783 273.8158,2.9983 C273.7968,2.7263 273.7098,2.4573 273.7018,2.1843 C273.6728,1.1813 273.6798,1.1813 274.6418,1.0753 C274.7208,1.0663 274.8278,1.0973 274.8758,1.0563 C275.2188,0.7623 275.5448,0.2233 275.8848,0.2163 C276.2328,0.2093 276.3308,0.9943 276.8838,1.0763 C277.1708,1.1183 277.5928,0.9173 277.7048,1.2883 C277.7648,1.4873 277.4838,1.7713 277.4138,2.0333 C277.3718,2.1913 277.4018,2.3953 277.4688,2.5483 C277.5278,2.6853 277.6708,2.7973 277.7978,2.8913 C278.3168,3.2733 278.2828,3.6773 278.0128,4.2353 C277.5878,5.1163 277.1838,6.0373 277.2908,7.0583 C277.3718,7.8373 277.4648,8.6333 277.9618,9.2813 C278.1308,9.5023 278.2228,9.6483 278.0308,9.8843 C277.9578,9.9733 277.9438,10.1093 277.8748,10.2033 C277.5468,10.6513 277.5898,11.0793 277.9678,11.4563 C278.1838,11.6713 278.2338,11.8263 277.9698,12.0243 C277.4348,12.4253 277.3318,12.9523 277.5158,13.5733 C277.5598,13.7203 277.5268,13.8913 277.5228,14.0513 C277.5038,14.8443 277.5348,14.9083 277.9438,15.5833 C278.0978,15.8373 278.2528,16.1003 278.0318,16.4413 C277.8428,16.7323 277.7998,17.1163 277.6168,17.4123 C277.2848,17.9493 277.2828,18.4423 277.7248,18.8873 C277.9358,19.0993 277.8838,19.2383 277.8078,19.4943 C277.6528,20.0163 277.5998,20.5693 277.5248,21.1133 C277.5048,21.2643 277.4948,21.4953 277.5828,21.5713 C278.1208,22.0393 277.9798,22.6543 278.0108,23.2393 C278.0228,23.4693 278.1288,23.6933 278.1538,23.9233 C278.1838,24.1913 278.2878,24.5843 278.1558,24.7103 C277.6728,25.1723 277.8028,25.7283 277.7478,26.2733 C277.7178,26.5753 277.5518,26.8633 277.4528,27.1593 C277.2088,27.8953 277.0488,28.6113 277.7188,29.2473 C277.8718,29.3923 277.9698,29.6493 277.9948,29.8673 C278.0678,30.4883 277.8818,31.1273 278.1958,31.7433 C278.2658,31.8813 278.0758,32.1833 277.9558,32.3803 C277.7008,32.7993 277.6378,33.2003 277.9988,33.5773 C278.2558,33.8443 278.3008,34.1053 278.1308,34.4393 C277.9898,34.7163 277.9388,35.0433 277.7818,35.3073 C277.4788,35.8153 277.4458,36.2333 277.9168,36.6813 C278.1678,36.9193 278.2618,37.2963 277.9808,37.6263 C277.3078,38.4203 277.2718,39.1813 278.0758,39.9133 C278.3128,40.1273 278.2558,40.3573 278.0328,40.5163 C277.0578,41.2113 277.1748,42.1073 277.5388,43.0553 C277.6478,43.3403 277.8408,43.5763 277.5818,43.9293 C277.3908,44.1883 277.2968,44.4603 276.9188,44.5243 C276.7068,44.5613 276.5338,44.8023 276.3198,44.8593 C275.8508,44.9823 275.8308,45.3133 275.8458,45.6893 C275.8538,45.8893 275.8358,46.0903 275.8498,46.2893 C275.8658,46.5093 275.7578,46.8083 276.0828,46.8833 C276.3988,46.9563 276.7248,46.9543 276.9468,46.6423 C277.1288,46.3863 277.3038,46.1253 277.4928,45.8753 C277.5288,45.8283 277.6188,45.8223 277.6838,45.7973 C277.7008,45.8703 277.7578,45.9693 277.7298,46.0133 C277.4338,46.4673 277.4658,46.9083 277.7458,47.3513 C277.7648,47.3813 277.7688,47.4333 277.7588,47.4693 C277.5218,48.3623 277.6908,49.2013 277.9818,50.0653 C278.1228,50.4833 278.1028,51.0243 277.7708,51.4363 C277.4088,51.8863 277.5088,52.3333 277.7948,52.7533 C278.0708,53.1583 278.0368,53.5803 277.9378,54.0113 C277.8158,54.5433 277.6608,55.0673 277.5408,55.5983 C277.4388,56.0493 277.5678,56.4743 277.8038,56.8493 C278.059516,57.2576681 278.09496,57.648074 277.827403,58.0352249 Z M143.6945,61.9475 C143.7545,61.9855 143.8155,62.0235 143.8755,62.0625 C143.8145,62.0245 143.7545,61.9865 143.6935,61.9485 L143.6938,61.9482 C143.6328,61.9102 143.5728,61.8732 143.5118,61.8352 C143.5728,61.8722 143.6338,61.9102 143.6948,61.9472 L143.6945,61.9475 Z M583.4564,69.3594 C583.5814,69.4134 583.6804,69.4554 583.7794,69.4984 C583.6114,69.5404 583.4454,69.6024 583.2744,69.6164 C583.1764,69.6234 583.0714,69.5534 582.9694,69.5174 C583.1334,69.4644 583.2984,69.4114 583.4564,69.3594 Z M275.2125,69.6797 C275.0645,69.6077 274.9425,69.5487 274.8205,69.4887 C274.9685,69.4567 275.1165,69.4037 275.2665,69.3977 C275.3735,69.3937 275.4835,69.4517 275.5925,69.4827 C275.4725,69.5447 275.3515,69.6077 275.2125,69.6797 Z M0.8435,46.5513 C0.9915,46.4733 1.0855,46.3833 1.1565,46.3993 C1.2285,46.4153 1.2775,46.5353 1.3365,46.6103 C1.2605,46.6683 1.1845,46.7713 1.1085,46.7703 C1.0375,46.7703 0.9675,46.6603 0.8435,46.5513 Z M155.5038,46.6211 C155.3578,46.6971 155.2628,46.7881 155.1938,46.7711 C155.1208,46.7541 155.0718,46.6341 155.0128,46.5591 C155.0888,46.5021 155.1648,46.3971 155.2398,46.3991 C155.3118,46.4011 155.3808,46.5121 155.5038,46.6211 Z M583.2551,72.8144 C583.2851,72.8734 583.3391,72.9334 583.3381,72.9914 C583.3371,73.0484 583.2791,73.1054 583.2451,73.1614 C583.2161,73.1024 583.1621,73.0424 583.1631,72.9824 C583.1641,72.9264 583.2221,72.8704 583.2551,72.8144 Z M463.3102,46.7065 C463.2512,46.7365 463.1912,46.7895 463.1332,46.7885 C463.0762,46.7875 463.0202,46.7305 462.9632,46.6975 C463.0222,46.6685 463.0822,46.6145 463.1402,46.6155 C463.1972,46.6165 463.2532,46.6735 463.3102,46.7065 Z M771.4469,46.6865 C771.4039,46.7235 771.3639,46.7855 771.3219,46.7875 C771.2629,46.7895 771.2009,46.7475 771.1409,46.7245 C771.1819,46.6865 771.2209,46.6195 771.2639,46.6165 C771.3209,46.6125 771.3809,46.6585 771.4469,46.6865 Z M297.9551,62.0786 C297.9321,62.0966 297.9071,62.1326 297.8881,62.1296 C297.8651,62.1256 297.8301,62.0846 297.8331,62.0666 C297.8391,62.0426 297.8761,62.0256 297.8991,62.0046 C297.9181,62.0296 297.9361,62.0546 297.9551,62.0786 Z M452.0389,62.073 C452.0159,62.092 451.9939,62.111 451.9709,62.13 C451.9749,62.089 451.9789,62.048 451.9829,62.007 C452.0019,62.029 452.0199,62.051 452.0389,62.073 Z M394.9128,65.1994 C394.8908,65.2184 394.8688,65.2364 394.8478,65.2544 C394.8288,65.2314 394.7928,65.2064 394.7968,65.1874 C394.8008,65.1644 394.8368,65.1464 394.8598,65.1264 C394.8768,65.1504 394.8948,65.1754 394.9128,65.1994 Z M548.9966,65.1936 C548.9746,65.2126 548.9526,65.2316 548.9316,65.2506 C548.9356,65.2096 548.9396,65.1686 548.9446,65.1266 C548.9616,65.1496 548.9796,65.1716 548.9966,65.1936 Z M703.0728,65.1994 C703.0508,65.2184 703.0298,65.2364 703.0078,65.2544 C702.9888,65.2314 702.9538,65.2064 702.9568,65.1874 C702.9608,65.1644 702.9968,65.1464 703.0198,65.1264 C703.0378,65.1504 703.0548,65.1754 703.0728,65.1994 Z M26.4595,51.2016 C26.4795,51.2236 26.4995,51.2456 26.5195,51.2686 C26.4765,51.2636 26.4335,51.2586 26.3905,51.2546 C26.4135,51.2366 26.4365,51.2196 26.4595,51.2016 Z M180.5394,51.2016 L180.5994,51.2686 C180.5564,51.2636 180.5134,51.2586 180.4704,51.2546 C180.4934,51.2366 180.5164,51.2196 180.5394,51.2016 Z M875.8186,57.6868 C875.8386,57.7088 875.8586,57.7308 875.8786,57.7528 C875.8356,57.7478 875.7926,57.7438 875.7506,57.7398 C875.7726,57.7218 875.7956,57.7048 875.8186,57.6868 Z" id="Combined-Shape" fill="#000000"></path>
                <text id="AWESOMEST-DAD" font-family="Futura-Bold, Futura" font-size="24" font-weight="bold" letter-spacing="1.70000005" fill="#F49D2C">
                    <tspan x="15" y="35">AWESOMEST DA</tspan>
                    <tspan x="237.696001" y="35">D</tspan>
                </text>
                <text id="COMMUNITY-GUY" font-family="Futura-Bold, Futura" font-size="24" font-weight="bold" letter-spacing="2" fill="#F49D2C">
                    <tspan x="612" y="34">COMMUNITY GU</tspan>
                    <tspan x="844.944" y="34">Y</tspan>
                </text>
                <text id="MONSTER-DRAWER" font-family="Futura-Bold, Futura" font-size="24" font-weight="bold" letter-spacing="2" fill="#F49D2C">
                    <tspan x="303" y="34">MONSTER DRAWE</tspan>
                    <tspan x="551.552" y="34">R</tspan>
                </text>
            </g>
        </g>
    </g>
</svg>