<svg width="218px" height="139px" viewBox="0 0 218 139" version="1.1" xmlns="http://www.w3.org/2000/svg" xmlns:xlink="http://www.w3.org/1999/xlink">
    <g id="Home-Desktop" stroke="none" stroke-width="1" fill="none" fill-rule="evenodd" transform="translate(-731.000000, -670.000000)">
        <g id="Masthead" transform="translate(0.000000, 149.000000)">
            <g id="Video" transform="translate(731.000000, 521.262743)">
                <g id="Group-2">
                    <polygon id="Fill-2" fill="#F49D2C" points="0 138 218 138 218 0 0 0"></polygon>
                    <g id="Group-25" transform="translate(13.000000, 9.000000)">
                        <path d="M19.4749,23 L4.5249,23 C2.0259,23 -0.0001,20.974 -0.0001,18.475 L-0.0001,4.525 C-0.0001,2.026 2.0259,0 4.5249,0 L19.4749,0 C21.9739,0 23.9999,2.026 23.9999,4.525 L23.9999,18.475 C23.9999,20.974 21.9739,23 19.4749,23" id="Fill-3" fill="#FFFFFF"></path>
                        <path d="M19.4749,54.6666 L4.5249,54.6666 C2.0259,54.6666 -0.0001,52.6406 -0.0001,50.1416 L-0.0001,36.1916 C-0.0001,33.6926 2.0259,31.6666 4.5249,31.6666 L19.4749,31.6666 C21.9739,31.6666 23.9999,33.6926 23.9999,36.1916 L23.9999,50.1416 C23.9999,52.6406 21.9739,54.6666 19.4749,54.6666" id="Fill-5" fill="#FFFFFF"></path>
                        <path d="M19.4749,86.3334 L4.5249,86.3334 C2.0259,86.3334 -0.0001,84.3074 -0.0001,81.8084 L-0.0001,67.8584 C-0.0001,65.3594 2.0259,63.3334 4.5249,63.3334 L19.4749,63.3334 C21.9739,63.3334 23.9999,65.3594 23.9999,67.8584 L23.9999,81.8084 C23.9999,84.3074 21.9739,86.3334 19.4749,86.3334" id="Fill-7" fill="#FFFFFF"></path>
                        <path d="M19.4749,118 L4.5249,118 C2.0259,118 -0.0001,115.974 -0.0001,113.475 L-0.0001,99.525 C-0.0001,97.026 2.0259,95 4.5249,95 L19.4749,95 C21.9739,95 23.9999,97.026 23.9999,99.525 L23.9999,113.475 C23.9999,115.974 21.9739,118 19.4749,118" id="Fill-9" fill="#FFFFFF"></path>
                        <path d="M188.4749,23 L173.5249,23 C171.0259,23 168.9999,20.974 168.9999,18.475 L168.9999,4.525 C168.9999,2.026 171.0259,0 173.5249,0 L188.4749,0 C190.9739,0 192.9999,2.026 192.9999,4.525 L192.9999,18.475 C192.9999,20.974 190.9739,23 188.4749,23" id="Fill-11" fill="#FFFFFF"></path>
                        <path d="M188.4749,54.6666 L173.5249,54.6666 C171.0259,54.6666 168.9999,52.6406 168.9999,50.1416 L168.9999,36.1916 C168.9999,33.6926 171.0259,31.6666 173.5249,31.6666 L188.4749,31.6666 C190.9739,31.6666 192.9999,33.6926 192.9999,36.1916 L192.9999,50.1416 C192.9999,52.6406 190.9739,54.6666 188.4749,54.6666" id="Fill-13" fill="#FFFFFF"></path>
                        <path d="M188.4749,86.3334 L173.5249,86.3334 C171.0259,86.3334 168.9999,84.3074 168.9999,81.8084 L168.9999,67.8584 C168.9999,65.3594 171.0259,63.3334 173.5249,63.3334 L188.4749,63.3334 C190.9739,63.3334 192.9999,65.3594 192.9999,67.8584 L192.9999,81.8084 C192.9999,84.3074 190.9739,86.3334 188.4749,86.3334" id="Fill-15" fill="#FFFFFF"></path>
                        <path d="M188.4749,118 L173.5249,118 C171.0259,118 168.9999,115.974 168.9999,113.475 L168.9999,99.525 C168.9999,97.026 171.0259,95 173.5249,95 L188.4749,95 C190.9739,95 192.9999,97.026 192.9999,99.525 L192.9999,113.475 C192.9999,115.974 190.9739,118 188.4749,118" id="Fill-17" fill="#FFFFFF"></path>
                        <path d="M147.7135,119 L45.2865,119 C39.6055,119 34.9995,114.395 34.9995,108.714 L34.9995,10.286 C34.9995,4.605 39.6055,0 45.2865,0 L147.7135,0 C153.3945,0 157.9995,4.605 157.9995,10.286 L157.9995,108.714 C157.9995,114.395 153.3945,119 147.7135,119" id="Fill-19" fill="#FFFFFF"></path>
                        <path d="M135,59 C135,79.435 118.435,96 98,96 C77.565,96 61,79.435 61,59 C61,38.565 77.565,22 98,22 C118.435,22 135,38.565 135,59" id="Fill-21" fill="#F49D2C"></path>
                        <polygon id="Fill-23" fill="#FFFFFF" points="115 59.9242 87.5 44.0472 87.5 75.8012"></polygon>
                    </g>
                </g>
            </g>
        </g>
    </g>
</svg>