<svg width="70px" height="57px" viewBox="0 0 70 57" version="1.1" xmlns="http://www.w3.org/2000/svg" xmlns:xlink="http://www.w3.org/1999/xlink">
    <g id="Symbols" stroke="none" stroke-width="1" fill="none" fill-rule="evenodd">
        <g id="Footer" transform="translate(-534.000000, -506.000000)" fill="#FFFFFF">
            <g id="Social">
                <g transform="translate(150.000000, 505.000000)">
                    <g id="Twitter" transform="translate(345.000000, 1.000000)">
                        <path d="M109,6.76875536 C107.016072,9.67814352 104.617619,12.1570207 101.804571,14.2054666 C101.83418,14.6210949 101.848984,15.2445324 101.848984,16.075779 C101.848984,19.9351762 101.286385,23.787092 100.161166,27.6316464 C99.0359565,31.4761907 97.325941,35.1648258 95.0310894,38.6976614 C92.7362477,42.2304871 90.0046742,45.3550659 86.8362992,48.0714847 C83.6679243,50.7879045 79.8481627,52.9550699 75.376905,54.5730467 C70.9056474,56.1910237 66.1235457,57 61.0304606,57 C53.005882,57 45.6624701,54.8476774 39,50.5429694 C40.0363844,50.6617197 41.1911955,50.7210939 42.4644673,50.7210939 C49.1269324,50.7210939 55.0638522,48.6726769 60.275383,44.575779 C57.1662259,44.5164078 54.3828368,43.5589974 51.925126,41.7035178 C49.4674152,39.8480382 47.7796154,37.4804821 46.8616757,34.6007795 C47.8388373,34.7492175 48.7419585,34.8234415 49.5710664,34.8234415 C50.8443402,34.8234415 52.1027896,34.6601607 53.3464444,34.3335992 C50.0300149,33.6507805 47.2836409,31.9957186 45.1072339,29.3683636 C42.9308269,26.7410086 41.8426399,23.6906438 41.8426399,20.2171893 L41.8426399,20.0390658 C43.8561857,21.1671983 46.0177554,21.775783 48.3274115,21.8648498 C46.3730865,20.5585937 44.8185338,18.851572 43.6637058,16.7437549 C42.5088777,14.6359277 41.9314726,12.350017 41.9314726,9.88594271 C41.9314726,7.27343049 42.582904,4.85392453 43.8857867,2.62734504 C47.4687156,7.05080845 51.8288671,10.5910056 56.9663756,13.2480462 C62.103874,15.9050968 67.6040322,17.3820351 73.4670093,17.6789111 C73.2301179,16.5507785 73.1116722,15.4523515 73.1116722,14.3836002 C73.1116722,10.4054507 74.510774,7.01369147 77.3090074,4.20820291 C80.1072508,1.40272433 83.4902507,0 87.4581266,0 C91.6036561,0 95.0976995,1.51404532 97.9403563,4.54218585 C101.167959,3.91874838 104.203034,2.76095019 107.045691,1.06875137 C105.950081,4.4828346 103.847737,7.12499252 100.73858,8.9953149 C103.4924,8.69843897 106.24618,7.9562591 109,6.76875536 Z" id="Page-1"></path>
                    </g>
                </g>
            </g>
        </g>
    </g>
</svg>