<svg width="60px" height="60px" viewBox="0 0 60 60" version="1.1" xmlns="http://www.w3.org/2000/svg" xmlns:xlink="http://www.w3.org/1999/xlink">
    <g id="Symbols" stroke="none" stroke-width="1" fill="none" fill-rule="evenodd">
        <g id="Footer" transform="translate(-1199.000000, -505.000000)" fill="#FFFFFF">
            <g id="Social">
                <g transform="translate(150.000000, 505.000000)">
                    <g id="LinkedIn" transform="translate(992.000000, 0.000000)">
                        <path d="M112.15625,0 C113.51042,0 114.65625,0.4427 115.59375,1.32812 C116.53125,2.21355 117,3.33333 117,4.6875 L117,54.84375 C117,56.197923 116.53125,57.395828 115.59375,58.4375 C114.65625,59.4791719 113.51042,60 112.15625,60 L62.15625,60 C60.802077,60 59.604172,59.4791719 58.5625,58.4375 C57.5208281,57.395828 57,56.197923 57,54.84375 L57,4.6875 C57,3.33333 57.4947867,2.21355 58.484375,1.32812 C59.473963,0.4427 60.697909,0 62.15625,0 L112.15625,0 Z M75.59375,50 L75.59375,23.28125 L67,23.28125 L67,50 L75.59375,50 Z M68.25,17.96875 C69.08334,18.80209 70.17708,19.21875 71.53125,19.21875 C72.88542,19.21875 74.0052,18.77605 74.89062,17.89062 C75.77605,17.0052 76.21875,15.93751 76.21875,14.6875 C76.21875,13.33333 75.80209,12.21355 74.96875,11.32812 C74.13541,10.4427 73.04167,10 71.6875,10 C70.33333,10 69.21355,10.4427 68.32812,11.32812 C67.4427,12.21355 67,13.33333 67,14.6875 C67,15.93751 67.41666,17.03125 68.25,17.96875 Z M107,50 L107,34.375 C107,30.52081 106.08855,27.60418 104.26562,25.625 C102.4427,23.64582 100.07293,22.65625 97.15625,22.65625 C94.03123,22.65625 91.42709,24.11457 89.34375,27.03125 L89.34375,23.28125 L80.75,23.28125 L80.75,50 L89.34375,50 L89.34375,34.84375 C89.34375,33.80208 89.44792,33.07292 89.65625,32.65625 C90.48959,30.57291 91.94791,29.53125 94.03125,29.53125 C96.94793,29.53125 98.40625,31.45831 98.40625,35.3125 L98.40625,50 L107,50 Z" id="Page-1"></path>
                    </g>
                </g>
            </g>
        </g>
    </g>
</svg>