<svg width="156px" height="71px" viewBox="0 0 156 71" version="1.1" xmlns="http://www.w3.org/2000/svg" xmlns:xlink="http://www.w3.org/1999/xlink">
    <g id="Home-Desktop" stroke="none" stroke-width="1" fill="none" fill-rule="evenodd" transform="translate(-646.000000, -983.000000)">
        <g id="Masthead" transform="translate(0.000000, 149.000000)" fill="#000000">
            <path d="M769.668,862.5022 C769.612,862.4682 769.557,862.4072 769.501,862.4062 C769.441,862.4052 769.38,862.4612 769.32,862.4912 C769.376,862.5262 769.432,862.5872 769.49,862.5892 C769.548,862.5912 769.609,862.5342 769.668,862.5022 M683.833,854.0992 C683.657,854.0442 683.555,853.9842 683.455,853.9882 C683.355,853.9922 683.257,854.0592 683.158,854.0992 C683.257,854.1382 683.354,854.2052 683.454,854.2102 C683.554,854.2142 683.657,854.1542 683.833,854.0992 M740.144,850.9142 C740.213,850.8252 740.339,850.7322 740.33,850.6572 C740.319,850.5742 740.138,850.4312 740.109,850.4482 C739.99,850.5182 739.9,850.6382 739.799,850.7402 C739.891,850.7862 739.983,850.8332 740.144,850.9142 M762.706,873.6522 C762.529,873.5842 762.366,873.5202 762.202,873.4562 C762.165,873.5552 762.128,873.6532 762.091,873.7522 C762.263,873.7922 762.435,873.8372 762.61,873.8652 C762.624,873.8682 762.657,873.7642 762.706,873.6522 M711.13,878.8672 C711.372,878.8932 711.53,878.9562 711.643,878.9092 C711.74,878.8682 711.785,878.7042 711.853,878.5942 C711.752,878.5602 711.627,878.4722 711.556,878.5042 C711.426,878.5622 711.327,878.6912 711.13,878.8672 M742.585,867.5012 C742.766,867.3262 742.892,867.2042 743.018,867.0812 C742.932,867.0342 742.834,866.9352 742.762,866.9512 C742.637,866.9782 742.514,867.0632 742.42,867.1542 C742.399,867.1752 742.496,867.3192 742.585,867.5012 M746.378,862.7572 C746.212,862.8992 746.111,862.9862 746.009,863.0732 C746.11,863.1602 746.206,863.3092 746.311,863.3162 C746.422,863.3232 746.541,863.1932 746.657,863.1232 C746.578,863.0202 746.5,862.9172 746.378,862.7572 M688.065,891.6702 C687.937,891.7782 687.826,891.8332 687.777,891.9222 C687.683,892.0902 687.892,892.3502 688.126,892.3402 C688.201,892.3362 688.345,892.1922 688.332,892.1582 C688.271,891.9952 688.168,891.8472 688.065,891.6702 M782.99,880.0402 C782.878,880.2012 782.805,880.3082 782.731,880.4142 C782.851,880.4802 782.976,880.6042 783.09,880.5952 C783.192,880.5872 783.282,880.4322 783.377,880.3412 C783.271,880.2592 783.164,880.1762 782.99,880.0402 M737.096,893.9942 C736.931,894.0752 736.81,894.1342 736.689,894.1942 C736.832,894.3002 736.964,894.4582 737.123,894.4942 C737.216,894.5152 737.353,894.3412 737.471,894.2542 C737.35,894.1702 737.229,894.0862 737.096,893.9942 M683.26,850.5172 C683.093,850.6592 682.991,850.7472 682.889,850.8342 C682.989,850.9222 683.084,851.0732 683.189,851.0802 C683.301,851.0872 683.422,850.9572 683.538,850.8872 C683.46,850.7832 683.382,850.6792 683.26,850.5172 M713.808,850.9562 C713.647,850.8312 713.534,850.6842 713.403,850.6652 C713.317,850.6522 713.151,850.8072 713.118,850.9162 C713.092,851.0042 713.213,851.1352 713.269,851.2472 C713.431,851.1602 713.593,851.0722 713.808,850.9562 M720.678,878.9392 C720.547,879.0802 720.448,879.1872 720.348,879.2932 C720.492,879.4072 720.622,879.5722 720.785,879.6142 C720.879,879.6392 721.024,879.4672 721.146,879.3832 C721.002,879.2462 720.857,879.1092 720.678,878.9392 M713.022,881.9742 C713.116,882.1612 713.19,882.3052 713.263,882.4492 C713.424,882.3582 713.586,882.2672 713.747,882.1762 C713.59,882.0112 713.433,881.8462 713.276,881.6812 C713.198,881.7722 713.119,881.8622 713.022,881.9742 M757.544,843.5042 C757.294,843.3762 757.141,843.2722 756.973,843.2322 C756.938,843.2232 756.789,843.4572 756.797,843.5712 C756.805,843.6762 756.989,843.8672 757.037,843.8502 C757.193,843.7962 757.323,843.6652 757.544,843.5042 M750.218,839.1902 C750.174,839.2212 750.074,839.2702 750.08,839.2912 C750.128,839.4622 750.157,839.6682 750.272,839.7812 C750.333,839.8412 750.554,839.7392 750.703,839.7102 C750.652,839.5902 750.626,839.4472 750.544,839.3552 C750.472,839.2732 750.336,839.2462 750.218,839.1902 M763.638,868.9162 C763.366,868.6842 763.211,868.5372 763.035,868.4242 C763.017,868.4132 762.814,868.5992 762.788,868.7152 C762.737,868.9372 762.856,869.1012 763.101,869.0902 C763.232,869.0842 763.36,869.0102 763.638,868.9162 M756.49,877.1082 C756.704,877.2672 756.846,877.4552 756.983,877.4522 C757.133,877.4482 757.279,877.2682 757.427,877.1652 C757.3,877.0442 757.181,876.8412 757.043,876.8262 C756.897,876.8112 756.731,876.9762 756.49,877.1082 M740.831,877.4892 C740.534,877.2882 740.359,877.1702 740.185,877.0512 C740.116,877.1712 740.001,877.2862 739.989,877.4112 C739.967,877.6532 740.136,877.7642 740.361,877.7282 C740.483,877.7082 740.593,877.6142 740.831,877.4892 M738.678,834.9932 C738.416,834.8822 738.263,834.7592 738.178,834.7952 C738.035,834.8562 737.894,835.0022 737.834,835.1462 C737.807,835.2102 737.977,835.3572 738.058,835.4672 C738.224,835.3402 738.391,835.2122 738.678,834.9932 M755.236,837.4242 C754.939,837.2152 754.766,837.0932 754.594,836.9722 C754.521,837.0882 754.4,837.1992 754.385,837.3222 C754.358,837.5602 754.52,837.6812 754.748,837.6492 C754.872,837.6322 754.987,837.5432 755.236,837.4242 M745.86,882.1722 C745.68,882.0202 745.507,881.8462 745.488,881.8622 C745.325,881.9942 745.19,882.1602 745.047,882.3172 C745.163,882.3902 745.297,882.5412 745.391,882.5182 C745.537,882.4842 745.655,882.3322 745.86,882.1722 M690.026,869.4172 C690.206,869.2492 690.335,869.1272 690.465,869.0062 C690.339,868.8852 690.217,868.6732 690.086,868.6682 C689.943,868.6632 689.792,868.8482 689.644,868.9502 C689.754,869.0852 689.864,869.2192 690.026,869.4172 M775.639,881.6982 C775.785,881.4912 775.929,881.3642 775.958,881.2152 C775.975,881.1252 775.814,881.0002 775.732,880.8912 C775.583,881.0412 775.426,881.1852 775.299,881.3512 C775.288,881.3662 775.474,881.5312 775.639,881.6982 M744.182,880.3942 C744.257,880.3262 744.377,880.2152 744.497,880.1052 C744.338,880.0362 744.182,879.9572 744.018,879.9032 C743.95,879.8812 743.843,879.8862 743.791,879.9272 C743.714,879.9872 743.65,880.0832 743.622,880.1762 C743.609,880.2192 743.685,880.3262 743.74,880.3442 C743.849,880.3792 743.971,880.3732 744.182,880.3942 M743.082,840.9042 C743.19,840.6932 743.323,840.5022 743.295,840.4742 C743.144,840.3252 742.953,840.2172 742.776,840.0952 C742.726,840.2302 742.603,840.3922 742.642,840.4922 C742.696,840.6292 742.872,840.7182 743.082,840.9042 M686.262,877.1662 C686.465,876.9432 686.631,876.8382 686.675,876.6962 C686.739,876.4852 686.625,876.3212 686.374,876.3052 C686.148,876.2902 685.965,876.3712 685.989,876.6162 C686.004,876.7682 686.128,876.9082 686.262,877.1662 M724.048,878.5202 C723.791,878.3822 723.65,878.2532 723.498,878.2372 C723.258,878.2122 723.164,878.3852 723.181,878.6182 C723.198,878.8692 723.359,878.9842 723.571,878.9222 C723.715,878.8802 723.823,878.7172 724.048,878.5202 M688.471,870.7142 C688.299,870.4992 688.149,870.3112 687.998,870.1222 C687.892,870.2322 687.732,870.3252 687.691,870.4552 C687.614,870.6952 687.92,871.0262 688.154,870.9792 C688.241,870.9612 688.31,870.8532 688.471,870.7142 M682.75,866.6442 C682.481,866.5502 682.326,866.4382 682.235,866.4762 C682.046,866.5562 681.891,866.7162 681.722,866.8432 C681.872,866.9462 682.047,867.1562 682.165,867.1272 C682.345,867.0842 682.485,866.8762 682.75,866.6442 M694.285,863.1562 C694.028,863.0182 693.888,862.8912 693.735,862.8732 C693.49,862.8462 693.403,863.0252 693.418,863.2542 C693.433,863.5032 693.59,863.6262 693.806,863.5612 C693.95,863.5182 694.059,863.3552 694.285,863.1562 M702.206,857.6982 C701.968,857.5312 701.822,857.3482 701.697,857.3612 C701.565,857.3762 701.454,857.5782 701.334,857.6982 C701.454,857.8182 701.565,858.0192 701.697,858.0342 C701.822,858.0482 701.968,857.8652 702.206,857.6982 M695.987,885.3232 C695.773,885.4942 695.586,885.6452 695.398,885.7962 C695.508,885.9022 695.601,886.0622 695.731,886.1042 C695.97,886.1792 696.304,885.8712 696.255,885.6392 C696.237,885.5522 696.129,885.4842 695.987,885.3232 M716.366,891.7762 C716.128,891.6102 715.982,891.4292 715.857,891.4432 C715.726,891.4582 715.615,891.6592 715.496,891.7792 C715.616,891.8982 715.727,892.0992 715.859,892.1132 C715.984,892.1262 716.129,891.9442 716.366,891.7762 M723.511,865.3852 C723.304,865.5932 723.156,865.7422 723.008,865.8912 C723.199,865.9972 723.38,866.1582 723.584,866.1972 C723.821,866.2412 723.938,866.0282 723.877,865.8222 C723.835,865.6792 723.673,865.5712 723.511,865.3852 M664.216,882.4602 C664.182,882.8112 664.108,883.0302 664.162,883.2112 C664.199,883.3332 664.432,883.4862 664.55,883.4672 C664.667,883.4482 664.861,883.1592 664.829,883.1082 C664.702,882.9032 664.5,882.7452 664.216,882.4602 M741.025,860.7872 C741.269,860.6802 741.422,860.6132 741.574,860.5472 C741.411,860.3622 741.467,859.9942 741.093,859.9842 C740.873,859.9782 740.678,860.0502 740.717,860.2852 C740.745,860.4552 740.907,860.6042 741.025,860.7872 M726.263,854.0642 C726.453,853.9422 726.597,853.8492 726.741,853.7572 C726.597,853.5992 726.454,853.4422 726.31,853.2852 C726.155,853.4312 725.999,853.5772 725.844,853.7232 C725.973,853.8282 726.102,853.9332 726.263,854.0642 M698.599,870.3512 C698.349,870.2172 698.176,870.0482 698.065,870.0822 C697.879,870.1372 697.732,870.3232 697.569,870.4542 C697.759,870.5602 697.942,870.7182 698.144,870.7492 C698.246,870.7652 698.383,870.5492 698.599,870.3512 M690.722,865.9902 C690.672,866.0742 690.555,866.1842 690.55,866.3002 C690.538,866.5502 690.418,866.9002 690.852,866.9212 C690.975,866.9272 691.171,866.8342 691.219,866.7322 C691.35,866.4562 691.108,866.0622 690.722,865.9902 M710.25,853.9752 C710.182,854.0602 710.01,854.1822 709.991,854.3232 C709.951,854.6282 710.125,854.8582 710.44,854.8912 C710.513,854.8982 710.666,854.7042 710.68,854.5892 C710.713,854.3312 710.778,854.0112 710.25,853.9752 M734.069,850.6952 C733.909,850.9572 733.762,851.0932 733.75,851.2402 C733.724,851.5722 733.995,851.6132 734.232,851.5682 C734.386,851.5392 734.521,851.4052 734.664,851.3172 C734.494,851.1402 734.324,850.9622 734.069,850.6952 M685.963,842.4062 C685.879,842.3562 685.769,842.2392 685.653,842.2322 C685.402,842.2182 685.052,842.0992 685.03,842.5342 C685.024,842.6582 685.116,842.8542 685.219,842.9032 C685.492,843.0352 685.892,842.7922 685.963,842.4062 M719.992,842.2262 C720.066,842.1472 720.247,842.0382 720.277,841.8992 C720.342,841.5862 720.149,841.3682 719.851,841.3052 C719.784,841.2902 719.605,841.4782 719.592,841.5862 C719.562,841.8362 719.458,842.1662 719.992,842.2262 M731.781,884.6892 C732.035,884.2772 732.207,884.0802 732.271,883.8522 C732.294,883.7722 732.068,883.5352 731.932,883.5132 C731.609,883.4602 731.551,883.7192 731.577,883.9712 C731.594,884.1362 731.666,884.2952 731.781,884.6892 M760.724,882.3382 C760.343,882.2192 760.106,882.0892 759.872,882.0932 C759.74,882.0952 759.552,882.2972 759.498,882.4472 C759.443,882.6022 759.908,882.8382 760.153,882.7532 C760.313,882.6982 760.441,882.5502 760.724,882.3382 M750.369,878.3492 C750.14,878.4932 749.877,878.5772 749.87,878.6792 C749.848,879.0002 750.091,879.1492 750.394,879.1732 C750.625,879.1912 750.811,879.0682 750.755,878.8422 C750.714,878.6722 750.525,878.5382 750.369,878.3492 M698.935,842.8632 C698.935,843.0832 698.931,843.2032 698.936,843.3222 C698.949,843.6472 699.116,843.6112 699.295,843.4562 C699.429,843.3412 699.65,843.1692 699.629,843.0642 C699.587,842.8582 699.414,842.6712 699.267,842.5012 C699.242,842.4732 699.033,842.5422 698.981,842.6172 C698.92,842.7032 698.938,842.8452 698.935,842.8632 M739.928,890.2862 C739.578,890.0662 739.392,889.8592 739.215,889.8662 C739.065,889.8722 738.869,890.1062 738.804,890.2802 C738.771,890.3702 739.002,890.6792 739.071,890.6652 C739.309,890.6192 739.528,890.4752 739.928,890.2862 M767.487,848.6112 C767.417,848.8442 767.341,848.9752 767.347,849.1022 C767.362,849.4032 767.546,849.6472 767.84,849.6082 C767.997,849.5882 768.122,849.3182 768.262,849.1612 C768.031,848.9972 767.801,848.8342 767.487,848.6112 M731.156,876.2132 C731.338,875.9702 731.536,875.8232 731.553,875.6582 C731.589,875.3182 731.291,875.3422 731.056,875.3382 C730.786,875.3322 730.547,875.4262 730.638,875.7312 C730.686,875.8942 730.918,876.0012 731.156,876.2132 M691.651,883.9172 C691.407,883.7362 691.26,883.5402 691.094,883.5232 C690.751,883.4862 690.78,883.7862 690.774,884.0192 C690.768,884.2902 690.865,884.5272 691.169,884.4352 C691.331,884.3862 691.439,884.1552 691.651,883.9172 M753.727,859.8222 C753.486,860.0322 753.255,860.1372 753.202,860.3002 C753.104,860.6042 753.337,860.7072 753.61,860.7022 C753.842,860.6972 754.141,860.7252 754.11,860.3852 C754.095,860.2192 753.903,860.0692 753.727,859.8222 M726.791,837.7682 C726.977,837.5102 727.212,837.3262 727.198,837.1632 C727.184,837.0062 726.91,836.7522 726.759,836.7582 C726.607,836.7642 726.359,837.0352 726.352,837.1982 C726.346,837.3562 726.592,837.5252 726.791,837.7682 M738.94,855.4842 C738.669,855.3382 738.524,855.1962 738.376,855.1942 C738.072,855.1892 737.813,855.3802 737.864,855.6902 C737.89,855.8522 738.225,856.1202 738.322,856.0822 C738.532,856.0022 738.678,855.7562 738.94,855.4842 M767.602,867.5542 C767.886,867.3352 768.064,867.2002 768.241,867.0642 C768.074,866.8652 767.945,866.5772 767.733,866.4882 C767.443,866.3672 767.301,866.6282 767.34,866.8992 C767.368,867.0912 767.484,867.2712 767.602,867.5542 M744.558,896.2392 C744.757,896.2252 744.884,896.2402 744.99,896.2002 C745.081,896.1662 745.201,896.0752 745.212,895.9972 C745.224,895.9032 745.152,895.7782 745.081,895.7002 C745.007,895.6172 744.877,895.5092 744.794,895.5252 C744.579,895.5682 744.364,895.6522 744.175,895.7642 C744.109,895.8032 744.075,896.0542 744.1,896.0672 C744.264,896.1542 744.449,896.2022 744.558,896.2392 M715.157,855.4962 C715.344,855.3542 715.624,855.2192 715.609,855.1382 C715.573,854.9472 715.429,854.7392 715.268,854.6212 C715.155,854.5392 714.892,854.5292 714.785,854.6082 C714.668,854.6942 714.558,854.9752 714.615,855.0712 C714.717,855.2432 714.945,855.3412 715.157,855.4962 M718.067,883.8902 C718.307,883.6822 718.545,883.5762 718.59,883.4162 C718.676,883.1122 718.465,882.8572 718.174,882.8202 C717.855,882.7812 717.656,883.0392 717.676,883.3372 C717.688,883.4992 717.888,883.6482 718.067,883.8902 M759.013,835.5842 C758.769,835.7892 758.531,835.8922 758.482,836.0522 C758.388,836.3562 758.6,836.6152 758.888,836.6572 C759.207,836.7042 759.41,836.4472 759.391,836.1472 C759.381,835.9822 759.186,835.8292 759.013,835.5842 M770.338,879.2232 C770.075,879.5372 769.801,879.7182 769.786,879.9182 C769.763,880.2122 770.039,880.3782 770.354,880.3742 C770.692,880.3702 770.735,880.1192 770.687,879.8832 C770.65,879.7002 770.511,879.5382 770.338,879.2232 M738.211,839.1292 C737.991,838.9052 737.872,838.6752 737.71,838.6412 C737.411,838.5772 737.149,838.7712 737.133,839.0802 C737.117,839.3982 737.377,839.5922 737.674,839.5582 C737.837,839.5392 737.976,839.3262 738.211,839.1292 M744.345,847.9152 C744.109,847.6502 743.972,847.4042 743.763,847.2842 C743.551,847.1632 743.168,847.4362 743.121,847.6712 C743.075,847.9002 743.345,848.2202 743.639,848.2002 C743.848,848.1852 744.049,848.0402 744.345,847.9152 M764.198,853.5492 C764.227,853.0912 764.024,852.8352 763.666,852.7872 C763.357,852.7452 763.255,852.9252 763.248,853.2072 C763.241,853.5152 763.288,853.7832 763.68,853.7322 C763.873,853.7072 764.056,853.6022 764.198,853.5492 M691.093,853.3932 C690.8,853.2292 690.624,853.0702 690.426,853.0352 C690.183,852.9932 689.847,852.9272 689.821,853.3512 C689.801,853.6642 689.987,853.9532 690.253,853.9232 C690.515,853.8932 690.748,853.6232 691.093,853.3932 M722.579,859.4882 C722.627,859.4452 722.879,859.3322 722.908,859.1772 C722.977,858.8102 722.736,858.5932 722.373,858.5472 C722.052,858.5052 721.976,858.7102 721.969,858.9812 C721.961,859.2932 722.018,859.5372 722.579,859.4882 M687.365,846.3462 C687.225,846.1992 687.079,845.9402 686.863,845.8482 C686.582,845.7292 686.269,846.0212 686.222,846.3772 C686.193,846.6052 686.289,846.7502 686.542,846.7752 C686.935,846.8142 687.331,846.6532 687.365,846.3462 M763.005,890.4452 C763.019,890.7302 763.002,890.8182 763.032,890.8862 C763.073,890.9792 763.139,891.1132 763.214,891.1272 C763.291,891.1412 763.401,891.0442 763.478,890.9752 C763.561,890.9012 763.605,890.7552 763.696,890.7232 C764.002,890.6152 764.049,890.3302 763.927,890.1642 C763.826,890.0272 763.471,889.9402 763.315,890.0142 C763.133,890.1012 763.044,890.3862 763.005,890.4452 M723.101,893.6572 C722.834,893.9182 722.606,894.0642 722.494,894.2732 C722.396,894.4552 722.744,894.7622 723.022,894.7732 C723.338,894.7862 723.611,894.6192 723.601,894.3322 C723.595,894.1352 723.328,893.9462 723.101,893.6572 M679.828,888.5482 C680.045,888.5352 680.165,888.5462 680.277,888.5192 C680.594,888.4442 680.678,888.1592 680.455,887.9352 C680.372,887.8522 680.299,887.7342 680.199,887.7012 C680.025,887.6432 679.72,887.5592 679.671,887.6282 C679.553,887.7942 679.498,888.0492 679.524,888.2552 C679.54,888.3812 679.754,888.4822 679.828,888.5482 M726.296,838.3562 C726.257,838.7002 726.387,838.8652 726.755,838.8662 C727.095,838.8682 727.263,838.7652 727.264,838.3982 C727.265,838.0592 727.164,837.8882 726.796,837.8902 C726.46,837.8912 726.259,837.9842 726.296,838.3562 M682.067,848.5822 C682.352,848.7332 682.536,848.8992 682.736,848.9232 C683.066,848.9622 683.313,848.6762 683.334,848.3492 C683.359,847.9582 682.878,847.8222 682.817,847.8592 C682.553,848.0182 682.355,848.2862 682.067,848.5822 M749.808,837.1342 C749.694,837.0222 749.565,836.8102 749.379,836.7312 C749.042,836.5872 748.656,836.8532 748.636,837.2462 C748.629,837.3762 748.798,837.6032 748.925,837.6352 C749.336,837.7392 749.735,837.5232 749.808,837.1342 M693.085,893.0132 C693.461,893.2412 693.718,893.5162 693.979,893.5202 C694.233,893.5252 694.461,893.1952 694.349,892.8872 C694.28,892.6972 694,892.4042 693.914,892.4352 C693.647,892.5302 693.428,892.7582 693.085,893.0132 M743.215,868.3532 C742.897,868.1042 742.689,867.8742 742.43,867.7662 C742.281,867.7042 741.859,868.3342 741.938,868.4862 C742.076,868.7522 742.309,868.9452 742.616,868.8332 C742.81,868.7632 742.957,868.5672 743.215,868.3532 M735.902,874.2232 C735.817,874.1532 735.671,873.9282 735.515,873.9222 C735.123,873.9062 734.944,874.1682 734.933,874.6382 C734.928,874.8992 734.987,875.1212 735.315,875.0932 C735.712,875.0582 735.889,874.8272 735.902,874.2232 M702.395,873.6672 C702.853,873.6722 703.015,873.5812 703.011,873.3212 C703.006,872.9732 702.766,872.7152 702.436,872.7022 C702.115,872.6892 701.841,872.9332 701.822,873.2802 C701.798,873.7092 702.127,873.6512 702.395,873.6672 M706.145,895.2362 C706.09,894.7602 705.81,894.5212 705.484,894.5452 C705.201,894.5662 704.856,894.9012 704.975,895.0672 C705.139,895.2942 705.376,895.5412 705.626,895.6052 C705.774,895.6422 706.007,895.3412 706.145,895.2362 M741.534,875.8252 C741.795,875.8052 742.132,875.8902 742.13,875.4622 C742.128,875.1092 741.868,874.8612 741.537,874.8602 C741.21,874.8592 740.944,875.1092 740.941,875.4592 C740.936,875.8872 741.272,875.8062 741.534,875.8252 M707.566,855.0862 C707.577,855.3702 707.54,855.6902 707.967,855.6502 C708.32,855.6182 708.552,855.3442 708.531,855.0252 C708.508,854.6952 708.242,854.4482 707.9,854.4692 C707.465,854.4962 707.603,854.8462 707.566,855.0862 M710.307,860.2212 C710.538,860.1802 710.891,860.3372 710.925,859.8992 C710.952,859.5592 710.708,859.2892 710.376,859.2632 C710.057,859.2382 709.778,859.4672 709.742,859.8182 C709.699,860.2432 710.012,860.2182 710.307,860.2212 M698.714,879.4462 C698.617,879.3212 698.574,879.2152 698.527,879.2132 C698.178,879.1962 697.826,879.1802 697.479,879.2112 C697.411,879.2182 697.285,879.4692 697.321,879.5422 C697.403,879.7092 697.544,879.8792 697.705,879.9672 C697.842,880.0422 698.089,880.0782 698.2,880.0022 C698.408,879.8622 698.553,879.6282 698.714,879.4462 M732.642,835.5022 C732.776,835.5022 732.905,835.5322 733.011,835.4962 C733.17,835.4402 733.313,835.3392 733.463,835.2572 C733.348,835.1102 733.251,834.9422 733.111,834.8262 C733.036,834.7632 732.886,834.7852 732.769,834.7782 C732.194,834.7452 731.77,834.9562 731.861,835.2602 C731.982,835.6682 732.384,835.4352 732.642,835.5022 M767.341,858.3702 C767.335,857.9082 767.4,857.5582 766.898,857.5732 C766.593,857.5822 766.355,857.6162 766.367,858.0142 C766.383,858.5212 766.646,858.8562 767.046,858.7472 C767.199,858.7052 767.291,858.4382 767.341,858.3702 M728.918,863.9062 C728.956,863.4322 728.71,863.1312 728.394,863.1052 C728.16,863.0862 727.492,863.5712 727.584,863.6652 C727.817,863.9032 728.096,864.1462 728.402,864.2412 C728.546,864.2852 728.794,863.9932 728.918,863.9062 M744.63,884.6692 C745.097,884.6862 745.493,884.3042 745.496,883.9612 C745.499,883.7052 745.449,883.5082 745.126,883.4952 C744.622,883.4752 744.262,883.6952 744.311,884.0872 C744.339,884.3122 744.541,884.5152 744.63,884.6692 M716.635,853.4972 C716.436,853.5092 715.949,853.9882 716.041,854.0912 C716.238,854.3142 716.574,854.6832 716.715,854.6292 C716.99,854.5242 717.229,854.1992 717.366,853.9092 C717.454,853.7252 716.997,853.4772 716.635,853.4972 M724.515,879.4152 C724.448,879.4722 724.21,879.5752 724.159,879.7362 C724.06,880.0482 724.291,880.2812 724.57,880.3512 C724.869,880.4252 725.211,880.4552 725.434,880.1452 C725.497,880.0582 725.568,879.9142 725.538,879.8322 C725.413,879.4882 725.129,879.3832 724.782,879.4152 C724.743,879.4182 724.703,879.4152 724.515,879.4152 M715.562,849.8922 C715.882,849.9222 716.178,849.6752 716.209,849.3502 C716.24,849.0302 715.992,848.7352 715.667,848.7042 C715.346,848.6742 715.05,848.9222 715.02,849.2462 C714.991,849.5662 715.238,849.8612 715.562,849.8922 M728.133,893.3492 C728.03,893.4702 727.833,893.6122 727.763,893.8002 C727.646,894.1182 728.089,894.7532 728.431,894.7292 C728.602,894.7172 728.829,894.4952 728.903,894.3152 C729.031,894.0062 728.582,893.4192 728.133,893.3492 M756.529,856.0912 L756.531,856.0912 C756.531,856.1702 756.527,856.2502 756.531,856.3292 C756.544,856.5592 756.501,856.8212 756.848,856.8522 C757.178,856.8812 757.373,856.6962 757.47,856.4172 C757.519,856.2762 757.505,856.1012 757.483,855.9472 C757.431,855.5942 757.159,855.3882 756.821,855.4302 C756.473,855.4732 756.552,855.7512 756.53,855.9732 C756.526,856.0122 756.529,856.0522 756.529,856.0912 M692.107,839.5822 C692.608,839.5692 692.925,839.3722 692.908,839.0842 C692.89,838.7942 692.581,838.6192 692.077,838.6172 C691.959,838.6172 691.828,838.6022 691.726,838.6462 C691.637,838.6852 691.545,838.7862 691.514,838.8802 C691.356,839.3512 691.569,839.5952 692.107,839.5822 M733.923,842.3582 C734.057,841.9382 734.191,841.6952 734.201,841.4472 C734.218,841.0112 733.921,840.7432 733.555,840.7842 C733.226,840.8212 732.898,841.1742 733.043,841.4362 C733.214,841.7452 733.539,841.9702 733.923,842.3582 M751.68,862.6292 C751.478,862.5542 751.242,862.4082 750.998,862.3902 C750.559,862.3582 750.278,862.6392 750.296,863.0032 C750.312,863.3342 750.608,863.6012 750.929,863.5742 C751.214,863.5512 751.678,863.0372 751.68,862.6292 M692.811,885.8902 C692.735,885.9232 692.551,885.9562 692.543,886.0132 C692.496,886.3652 692.131,886.7082 692.458,887.0712 C692.568,887.1932 692.76,887.3252 692.905,887.3152 C693.272,887.2882 693.442,886.9752 693.417,886.5322 C693.397,886.1602 693.202,885.9642 692.811,885.8902 M757.667,884.6942 C757.361,884.7052 757.006,884.6212 757.01,885.1272 C757.015,885.6892 757.232,885.9032 757.801,885.9042 C758.209,885.9042 758.218,885.6472 758.22,885.3502 C758.225,884.7672 758.18,884.7062 757.667,884.6942 M693.343,888.7822 C693.361,888.7802 693.561,888.8262 693.661,888.7462 C693.828,888.6122 694.022,888.4012 694.028,888.2162 C694.031,888.0902 693.751,887.8752 693.569,887.8372 C692.913,887.7022 692.527,887.8252 692.463,888.1142 C692.348,888.6372 692.519,888.7912 693.343,888.7822 M687.16,865.2852 C686.792,865.2922 686.425,865.6932 686.456,866.0522 C686.482,866.3442 686.929,866.7672 687.179,866.6522 C687.43,866.5372 687.696,866.2912 687.789,866.0412 C687.883,865.7862 687.39,865.2802 687.16,865.2852 M690.942,887.1042 C690.836,887.1932 690.724,887.2532 690.659,887.3462 C690.377,887.7532 690.502,888.0202 691.099,888.3232 C691.593,888.5742 692.191,888.5792 692.151,888.3982 C692.089,888.1252 691.858,887.8832 691.676,887.6452 C691.557,887.4902 691.407,887.3532 691.253,887.2312 C691.168,887.1642 691.046,887.1442 690.942,887.1042 M735.892,857.4482 C735.897,857.1302 735.591,856.8382 735.276,856.8582 C734.956,856.8802 734.37,857.4232 734.499,857.6112 C734.685,857.8822 734.963,858.1272 735.256,858.2772 C735.504,858.4042 735.886,857.8792 735.892,857.4482 M721.974,888.8502 C722.012,888.4952 721.903,888.1502 721.556,888.1162 C721.356,888.0962 721.077,888.3442 720.919,888.5412 C720.68,888.8382 720.672,889.2232 720.933,889.5062 C721.064,889.6482 721.369,889.7522 721.549,889.7032 C721.958,889.5932 722.012,889.2212 721.974,888.8502 M725.677,858.7762 C725.716,858.7742 725.757,858.7772 725.794,858.7672 C726.091,858.6932 726.28,858.5122 726.289,858.1992 C726.3,857.7832 725.985,857.5462 725.683,857.4082 C725.478,857.3152 725.176,857.4342 724.919,857.4652 C724.9,857.4672 724.885,857.5282 724.873,857.5632 C724.711,858.0602 725.165,858.7442 725.677,858.7762 M763.82,849.9542 C763.949,849.8412 764.128,849.7502 764.186,849.6102 C764.227,849.5112 764.131,849.2482 764.046,849.2232 C763.58,849.0812 763.532,848.7032 763.415,848.3242 C763.373,848.1862 763.071,847.9902 762.986,848.0302 C762.804,848.1162 762.601,848.3182 762.557,848.5072 C762.405,849.1592 763.416,849.1442 763.354,849.7932 C763.351,849.8262 763.619,849.8862 763.82,849.9542 M736.64,862.8682 C736.693,862.8312 736.993,862.7362 737.06,862.5552 C737.163,862.2802 737.183,861.8982 736.684,861.8902 C736.481,861.8862 736.534,861.7762 736.495,861.6202 C736.383,861.1682 736.147,861.0902 735.742,861.2482 C735.476,861.3532 735.436,861.5782 735.661,861.7732 C735.829,861.9202 736.147,861.8892 735.943,862.3282 C735.757,862.7282 735.936,862.8512 736.64,862.8682 M741.473,866.9412 C741.539,866.9092 741.721,866.8532 741.844,866.7362 C741.877,866.7052 741.726,866.4862 741.666,866.3502 C741.542,866.0712 741.457,865.7672 741.288,865.5212 C741.195,865.3862 740.97,865.3192 740.791,865.2752 C740.707,865.2552 740.539,865.3352 740.5,865.4152 C740.179,866.0672 740.683,866.9502 741.473,866.9412 M704.229,859.9342 C704.104,859.7922 703.96,859.6122 703.8,859.4472 C703.576,859.2192 703.287,859.1572 703.058,859.3732 C702.909,859.5142 702.801,859.7762 702.805,859.9822 C702.81,860.3302 702.801,860.8512 703.006,860.9892 C703.515,861.3312 703.378,860.4322 703.806,860.4302 C703.9,860.4302 704.002,860.3032 704.083,860.2192 C704.135,860.1662 704.155,860.0832 704.229,859.9342 M760.287,883.1252 C759.95,883.3232 759.631,883.4592 759.377,883.6732 C759.095,883.9102 759.198,884.3092 759.545,884.4122 C760.028,884.5562 760.487,884.4582 760.907,884.1952 C761.16,884.0372 761.169,883.7662 761.008,883.5842 C760.844,883.3982 760.578,883.3032 760.287,883.1252 M763.738,865.0112 C763.732,864.5722 763.06,863.4552 762.789,863.3662 C762.684,863.3312 762.539,863.3332 762.441,863.3802 C762.168,863.5112 761.943,863.7582 762.081,864.0472 C762.333,864.5762 762.661,865.0702 762.977,865.5662 C763.069,865.7102 763.598,865.5622 763.672,865.3692 C763.726,865.2252 763.729,865.0622 763.738,865.0112 M685.263,862.8882 L685.27,862.8882 C685.27,863.1262 685.19,863.4072 685.29,863.5912 C685.424,863.8382 685.678,864.1532 685.914,864.1842 C686.382,864.2452 686.751,863.6802 686.642,863.2112 C686.572,862.9102 686.554,862.5822 686.419,862.3142 C686.301,862.0792 686.052,861.9112 685.86,861.7132 C685.661,861.9462 685.436,862.1632 685.275,862.4202 C685.204,862.5342 685.263,862.7302 685.263,862.8882 M690.371,871.7052 C690.224,871.8162 689.994,871.9172 689.881,872.0932 C689.733,872.3252 690.044,872.3692 690.132,872.5052 C690.605,873.2312 691.484,872.9552 692.098,873.3292 C692.175,873.3762 692.561,873.0822 692.666,872.8762 C692.805,872.6022 692.524,872.4852 692.3,872.3912 C691.834,872.1952 691.375,871.9852 690.906,871.7982 C690.764,871.7422 690.6,871.7432 690.371,871.7052 M700.291,868.9552 C700.692,868.8202 701.108,868.7142 701.488,868.5342 C701.63,868.4672 701.785,868.2132 701.762,868.0742 C701.737,867.9232 701.526,867.7222 701.367,867.6902 C700.755,867.5652 700.132,867.4922 699.511,867.4182 C699.316,867.3942 699.108,867.3972 698.915,867.4352 C698.506,867.5162 698.385,867.9262 698.663,868.2262 C699.094,868.6912 699.62,868.9112 700.291,868.9552 M707.87,867.4172 C707.948,867.3902 708.173,867.3342 708.381,867.2402 C709.065,866.9302 709.645,866.4902 710.007,865.8162 C710.087,865.6682 710.173,865.3952 710.105,865.3232 C709.963,865.1742 709.686,865.0042 709.525,865.0512 C709.203,865.1452 708.81,865.3102 708.647,865.5702 C708.384,865.9892 708.053,866.1432 707.611,866.2202 C707.234,866.2852 706.87,866.6802 706.881,866.9562 C706.892,867.2372 707.244,867.4332 707.87,867.4172 M729.816,869.8192 C730.431,869.8972 731.164,869.8682 731.69,869.1592 C731.775,869.0452 731.996,869.0372 732.089,868.9262 C732.314,868.6572 732.535,868.3722 732.686,868.0592 C732.742,867.9412 732.641,867.6122 732.542,867.5772 C732.072,867.4112 731.513,867.1072 731.105,867.2342 C730.225,867.5092 729.397,867.9832 728.594,868.4552 C728.399,868.5692 728.275,869.0062 728.314,869.2652 C728.365,869.6002 728.594,869.9132 729.062,869.8252 C729.254,869.7882 729.458,869.8192 729.816,869.8192 M716.265,868.6082 C716.102,868.1372 716.005,867.7912 715.592,867.5852 C714.411,866.9982 712.48,867.2572 711.56,868.1742 C711.268,868.4652 711.38,869.0582 711.763,869.0792 C712.161,869.1002 712.45,869.2392 712.682,869.5292 C712.947,869.8622 713.38,869.9612 713.639,869.7712 C714.275,869.3042 715.008,869.2632 715.714,869.0732 C715.933,869.0142 716.097,868.7562 716.265,868.6082 M743.335,834.5392 C743.901,834.1642 744.571,834.1442 745.2,834.0902 C746.113,834.0112 747.041,834.0242 747.957,834.0822 C748.657,834.1262 749.348,834.3002 750.044,834.4142 C750.313,834.4592 750.614,834.5972 750.848,834.5242 C752.14,834.1192 753.458,834.3692 754.762,834.3152 C755.56,834.2832 756.361,834.3262 757.16,834.3032 C757.748,834.2872 758.329,834.3562 758.921,834.1162 C759.3,833.9622 759.825,833.9672 760.221,834.0962 C761.242,834.4312 762.273,834.2342 763.297,834.3012 C764.762,834.3972 766.243,834.0952 767.696,834.4852 C768.538,834.0282 769.528,834.6012 770.374,834.1122 C770.415,834.0882 770.667,834.2732 770.664,834.3552 C770.613,835.6602 770.881,836.9802 770.496,838.2702 C770.462,838.3822 770.451,838.5062 770.455,838.6232 C770.508,840.0922 770.198,841.5282 770.086,842.9822 C770.051,843.4362 770.115,843.9192 770.235,844.3602 C770.565,845.5742 770.401,846.7552 770.273,847.9852 C770.122,849.4302 770.051,850.9152 770.359,852.3822 C770.544,853.2632 770.659,854.1742 770.676,855.0742 C770.72,857.3922 770.685,859.7122 770.7,862.0312 C770.703,862.4182 770.824,862.8032 770.852,863.1922 C770.868,863.4142 770.83,863.6482 770.776,863.8672 C770.606,864.5482 770.384,865.2192 770.248,865.9062 C770.171,866.2922 770.167,866.7112 770.229,867.1002 C770.333,867.7522 770.539,868.3882 770.659,869.0392 C770.814,869.8822 770.491,870.6772 770.325,871.4802 C770.186,872.1542 770.206,872.7842 770.332,873.4622 C770.536,874.5642 771.006,875.6732 770.473,876.8202 C770.396,876.9872 770.452,877.2152 770.449,877.4152 C770.434,878.3242 770.459,878.2412 771.318,878.4982 C772.595,878.8792 773.803,878.6932 775.03,878.3402 C775.952,878.0752 776.773,878.0512 777.663,878.2502 C778.195,878.3702 778.715,878.5422 779.246,878.6652 C779.435,878.7092 779.652,878.7242 779.838,878.6772 C781.208,878.3282 782.558,878.4272 783.943,878.6592 C784.739,878.7922 785.579,878.7802 786.421,878.5512 C787.283,878.3162 788.21,878.2602 789.111,878.2432 C791.23,878.2032 793.35,878.2472 795.47,878.2252 C796.123,878.2182 796.764,878.3542 797.432,878.2562 C798.137,878.1532 798.869,878.2232 799.588,878.2232 C800.268,878.2232 800.948,878.2242 801.628,878.2392 C801.773,878.2422 801.916,878.3082 802.06,878.3452 C801.911,878.3872 801.756,878.4152 801.614,878.4752 C800.496,878.9462 799.22,879.0572 798.245,879.8452 C797.622,880.3492 796.877,880.4082 796.165,880.5992 C795.713,880.7192 795.237,880.7482 794.78,880.8542 C794.44,880.9342 794.095,881.0362 793.783,881.1892 C790.631,882.7342 787.284,883.7272 783.918,884.6612 C783.091,884.8902 782.222,884.9692 781.39,885.1862 C780.825,885.3352 780.285,885.5902 779.746,885.8242 C778.989,886.1512 778.282,886.5742 777.447,886.7302 C775.738,887.0492 774.214,887.9382 772.562,888.4162 C770.963,888.8802 769.437,889.4742 767.959,890.2262 C767.653,890.3822 767.284,890.4102 766.952,890.5212 C765.467,891.0202 763.992,891.5462 762.501,892.0232 C761.758,892.2612 760.996,892.4882 760.226,892.5812 C759.691,892.6462 759.242,892.8222 758.782,893.0622 C757.382,893.7892 755.932,894.3832 754.431,894.8882 C752.906,895.4022 751.407,896.0302 749.967,896.7492 C748.952,897.2562 747.889,897.4612 746.811,897.6252 C746.329,897.6982 745.9,897.8202 745.465,898.0242 C744.038,898.6952 742.574,899.2462 740.973,899.3422 C740.755,899.3552 740.539,899.4862 740.331,899.5822 C740.225,899.6302 740.137,899.7192 740.044,899.7932 C738.854,900.7482 737.542,901.2312 735.98,901.0332 C735.079,900.9192 734.332,901.5042 733.541,901.8332 C731.182,902.8142 728.843,903.8342 726.427,904.6812 C725.166,905.1242 724.025,905.1552 722.772,904.6702 C721.852,904.3142 720.938,904.0032 720.104,903.4472 C719.245,902.8742 718.195,902.7502 717.22,902.4622 C716.286,902.1872 715.337,901.9082 714.375,901.7922 C713.622,901.7012 712.994,901.3822 712.415,901.0012 C711.044,900.0992 709.491,899.6622 707.986,899.0952 C705.708,898.2362 703.311,897.8172 700.971,897.1902 C699.84,896.8872 698.885,896.2682 697.87,895.7492 C697.667,895.6452 697.45,895.5272 697.23,895.5012 C696.37,895.4002 695.487,895.4162 694.648,895.2302 C693.891,895.0632 693.174,894.7042 692.449,894.4062 C691.212,893.8982 690.013,893.2742 688.741,892.8792 C687.159,892.3872 685.604,891.8702 684.12,891.1202 C683.612,890.8642 682.999,890.7722 682.422,890.7062 C681.589,890.6132 680.769,890.4742 680.081,889.9902 C678.89,889.1502 677.539,888.7912 676.143,888.5262 C675.915,888.4832 675.679,888.4172 675.479,888.3052 C675.084,888.0842 674.736,887.6962 674.322,887.6152 C673.892,887.5312 673.493,887.4052 673.08,887.2742 C672.676,887.1462 672.227,887.0732 671.806,887.1042 C670.679,887.1862 669.719,886.8392 668.84,886.1622 C668.022,885.5332 667.128,885.1142 666.091,884.8842 C664.992,884.6392 663.962,884.1052 662.885,883.7462 C661.141,883.1642 659.389,882.6032 657.629,882.0682 C656.695,881.7842 655.744,881.5512 654.791,881.3382 C653.942,881.1482 653.099,880.9532 652.361,880.4752 C651.375,879.8372 650.245,879.5932 649.127,879.4572 C648.39,879.3672 647.755,879.1412 647.114,878.8312 C646.831,878.6942 646.538,878.5792 646.25,878.4502 C646.164,878.4112 646.083,878.3592 646,878.3122 C646.072,878.2872 646.143,878.2462 646.217,878.2392 C647.079,878.1512 647.961,877.9102 648.8,878.0132 C651.622,878.3622 654.448,878.1432 657.27,878.2422 C657.735,878.2582 658.201,878.4692 658.658,878.4422 C659.516,878.3912 660.366,878.2122 661.223,878.1252 C661.89,878.0572 662.581,877.9332 663.23,878.0332 C664.715,878.2622 665.437,878.2842 666.974,878.0232 C667.518,877.9312 668.132,877.8732 668.64,878.0332 C669.392,878.2692 670.134,878.1722 670.878,878.2352 C671.543,878.2902 672.204,878.3922 672.868,878.4572 C673.097,878.4792 673.247,878.5512 673.251,878.8012 C673.257,879.1252 673.456,879.2222 673.725,879.1622 C674.018,879.0972 674.242,878.9312 674.167,878.5792 C674.141,878.4542 673.926,878.3002 674.204,878.2462 C674.742,878.1402 675.287,877.9972 675.829,878.0002 C676.853,878.0062 677.899,877.8212 678.898,878.2162 C678.933,878.2302 678.977,878.2212 679.017,878.2202 C679.773,878.2012 680.528,878.1822 681.283,878.1622 C681.329,877.4582 681.431,876.7512 681.409,876.0492 C681.371,874.8252 681.611,873.5842 681.215,872.3792 C681.658,871.1372 681.362,869.8532 681.409,868.5902 C681.431,868.0092 681.504,867.4202 681.271,866.8222 C681.15,866.5122 681.316,866.0572 681.434,865.6942 C682.048,863.8042 681.907,861.8552 681.908,859.9182 C681.91,854.4402 681.904,848.9612 681.901,843.4832 C681.901,843.2032 681.898,842.9232 681.902,842.6432 C681.909,842.2552 682.033,842.1972 682.422,842.3442 C682.946,842.5422 683.254,842.3642 683.321,841.9472 C683.373,841.6232 683.365,841.2962 683.029,841.1032 C682.749,840.9432 682.495,841.0022 682.279,841.2362 C682.033,841.5012 681.882,841.4812 681.899,841.0922 C681.952,839.8602 681.827,838.6532 681.451,837.4742 C681.405,837.3282 681.418,837.1542 681.439,836.9972 C681.506,836.4932 681.601,835.9922 681.665,835.4882 C681.745,834.8472 682.043,834.5112 682.64,834.3162 C683.947,833.8892 685.225,833.9542 686.498,834.4472 C687.001,834.6412 687.486,834.7372 688.063,834.5842 C688.626,834.4342 689.317,834.6902 689.837,834.4812 C690.441,834.2402 690.9,834.5882 691.435,834.5702 C693.353,834.5062 695.273,834.5432 697.193,834.5462 C697.576,834.5472 697.97,834.4402 698.036,835.0832 C698.068,835.3972 698.701,835.3092 698.85,834.9022 C698.899,834.7692 698.705,834.5682 699.033,834.5462 C700.096,834.4752 701.157,834.3622 702.221,834.3202 C702.806,834.2982 703.414,834.1952 703.975,834.5172 C704.097,834.5872 704.293,834.5612 704.448,834.5362 C705.297,834.4012 706.143,834.2482 706.992,834.1132 C707.186,834.0822 707.393,834.0572 707.584,834.0912 C708.352,834.2282 709.115,834.3962 709.883,834.5362 C710.076,834.5722 710.282,834.5382 710.481,834.5502 C711.029,834.5842 711.579,834.4822 712.121,834.7432 C712.383,834.8702 712.754,834.8132 713.069,834.7782 C714.044,834.6722 715.015,834.5342 715.988,834.4152 C716.133,834.3972 716.285,834.3882 716.429,834.4112 C717.607,834.5942 718.768,834.6362 719.954,834.3702 C720.832,834.1742 721.75,834.0962 722.652,834.0822 C725.05,834.0442 727.451,834.0442 729.849,834.0802 C731.073,834.0992 732.294,834.2842 733.517,834.2912 C734.499,834.2972 735.481,834.0992 736.465,834.0762 C738.007,834.0402 739.522,834.3542 741.03,834.6182 C741.551,834.7092 741.996,834.8432 742.509,834.6102 C742.746,834.5022 743.057,834.5572 743.335,834.5382 C743.394,834.7962 743.403,835.0822 743.527,835.3042 C743.666,835.5522 743.903,835.5272 744.112,835.3172 C744.322,835.1082 744.349,834.8712 744.1,834.7322 C743.878,834.6082 743.592,834.5992 743.335,834.5392 Z M770.4791,843.3131 C770.5781,843.2661 770.6571,843.1991 770.6921,843.2171 C770.7721,843.2601 770.8491,843.3341 770.8911,843.4141 C770.9101,843.4531 770.8461,843.5351 770.8191,843.5971 C770.7111,843.5061 770.6021,843.4161 770.4791,843.3131 Z M698.1467,902.1228 C698.0647,902.1498 697.9997,902.1898 697.9377,902.1858 C697.8977,902.1828 697.8627,902.1138 697.8247,902.0748 C697.8877,902.0518 697.9507,902.0088 698.0107,902.0128 C698.0567,902.0158 698.0967,902.0798 698.1467,902.1228 Z M661.6191,887.8737 C661.6391,887.8957 661.6591,887.9177 661.6791,887.9397 C661.6361,887.9347 661.5931,887.9307 661.5511,887.9257 L661.6191,887.8737 Z M785.6866,886.8008 L785.6486,886.7108 L785.7366,886.7198 L785.6866,886.8008 Z M773.9977,875.4701 C773.9747,875.4891 773.9487,875.5261 773.9297,875.5221 C773.9067,875.5181 773.8707,875.4771 773.8747,875.4581 C773.8787,875.4341 773.9167,875.4161 773.9407,875.3951 C773.9597,875.4201 773.9787,875.4451 773.9977,875.4701 Z" id="Combined-Shape"></path>
        </g>
    </g>
</svg>