<svg width="57px" height="57px" viewBox="0 0 57 57" version="1.1" xmlns="http://www.w3.org/2000/svg" xmlns:xlink="http://www.w3.org/1999/xlink">
    <g id="Symbols" stroke="none" stroke-width="1" fill="none" fill-rule="evenodd">
        <g id="Footer" transform="translate(-228.000000, -505.000000)" fill="#FFFFFF">
            <g id="Social">
                <g transform="translate(150.000000, 505.000000)">
                    <g id="Instagram">
                        <path d="M132.439453,0 L80.5605469,0 C79.8925746,0 79.2988305,0.25976325 78.7792969,0.779296875 C78.259763,1.2988305 78,1.89257812 78,2.56054688 L78,54.4394531 C78,55.1074254 78.259763,55.7011695 78.7792969,56.2207031 C79.2988305,56.740237 79.8925746,57 80.5605469,57 L132.439453,57 C133.107422,57 133.701169,56.740237 134.220703,56.2207031 C134.740237,55.7011695 135,55.1074254 135,54.4394531 L135,2.56054688 C135,1.89257812 134.740237,1.2988305 134.220703,0.779296875 C133.701169,0.25976325 133.107422,0 132.439453,0 Z M113.513672,21.4863281 C115.443371,23.4160275 116.408203,25.7538896 116.408203,28.5 C116.408203,31.2461104 115.443371,33.5839725 113.513672,35.5136719 C111.583973,37.4433712 109.24611,38.4082031 106.5,38.4082031 C103.75389,38.4082031 101.416027,37.4433712 99.4863281,35.5136719 C97.5566288,33.5839725 96.5917969,31.2461104 96.5917969,28.5 C96.5917969,25.7538896 97.5566288,23.4160275 99.4863281,21.4863281 C101.416027,19.5566288 103.75389,18.5917969 106.5,18.5917969 C109.24611,18.5917969 111.583973,19.5566288 113.513672,21.4863281 Z M127.875,49.875 L85.125,49.875 L85.125,24.9375 L89.8007812,24.9375 C89.578125,26.1250024 89.4667969,27.3124976 89.4667969,28.5 C89.4667969,33.1758026 91.1367045,37.1835795 94.4765625,40.5234375 C97.8164205,43.8632955 101.824197,45.5332031 106.5,45.5332031 C111.175803,45.5332031 115.18358,43.8632955 118.523438,40.5234375 C121.863296,37.1835795 123.533203,33.1758026 123.533203,28.5 C123.533203,27.3124976 123.421875,26.1250024 123.199219,24.9375 L127.875,24.9375 L127.875,49.875 Z M127.875,17.8125 L117.1875,17.8125 L117.1875,7.125 L127.875,7.125 L127.875,17.8125 Z" id="Page-1"></path>
                    </g>
                </g>
            </g>
        </g>
    </g>
</svg>