<svg width="178px" height="110px" viewBox="0 0 178 110" version="1.1" xmlns="http://www.w3.org/2000/svg" xmlns:xlink="http://www.w3.org/1999/xlink">
    <g id="Home-Desktop" stroke="none" stroke-width="1" fill="none" fill-rule="evenodd" transform="translate(-668.000000, -536.000000)">
        <g id="Masthead" transform="translate(0.000000, 149.000000)" fill="#F49D2C">
            <path d="M795.7747,437.97565 C795.8147,437.94465 795.8547,437.91365 795.8957,437.88265 C795.8617,437.84365 795.8327,437.78265 795.7927,437.77565 C795.7627,437.76965 795.6967,437.82865 795.6897,437.86665 C795.6847,437.89665 795.7437,437.93865 795.7747,437.97565 L795.7747,437.97565 Z M826.4687,407.28165 C826.5097,407.25065 826.5497,407.21965 826.5907,407.18765 C826.5567,407.14965 826.5267,407.08765 826.4877,407.08065 C826.4567,407.07465 826.3907,407.13365 826.3837,407.17165 C826.3787,407.20265 826.4387,407.24465 826.4687,407.28165 L826.4687,407.28165 Z M826.9797,428.67165 C826.9487,428.63465 826.9177,428.59765 826.8867,428.56065 C826.8807,428.63065 826.8737,428.69965 826.8677,428.76965 C826.9047,428.73665 826.9417,428.70465 826.9797,428.67165 L826.9797,428.67165 Z M836.7387,436.32165 L836.8367,436.44565 C836.8757,436.41065 836.9387,436.37965 836.9457,436.33865 C836.9517,436.30765 836.8907,436.23865 836.8517,436.23265 C836.8197,436.22765 836.7777,436.28965 836.7387,436.32165 L836.7387,436.32165 Z M800.0427,432.17165 C800.0877,432.06465 800.1647,431.96565 800.1587,431.87365 C800.1537,431.80365 800.0417,431.74065 799.9777,431.67565 C799.9387,431.77365 799.8667,431.87265 799.8717,431.96865 C799.8747,432.03765 799.9797,432.10165 800.0427,432.17165 L800.0427,432.17165 Z M795.7867,427.60065 C795.8417,427.51065 795.9387,427.42165 795.9407,427.33065 C795.9417,427.23365 795.8527,427.13565 795.8027,427.03765 C795.7467,427.12965 795.6487,427.22065 795.6467,427.31365 C795.6437,427.40765 795.7347,427.50465 795.7867,427.60065 L795.7867,427.60065 Z M810.4197,404.81565 C810.3527,404.87965 810.2357,404.93865 810.2287,405.00865 C810.2197,405.10465 810.2937,405.20865 810.3327,405.30865 C810.3977,405.24765 810.5107,405.18965 810.5157,405.12365 C810.5237,405.02465 810.4567,404.91965 810.4197,404.81565 L810.4197,404.81565 Z M822.6007,404.16865 C822.6687,404.10465 822.7867,404.04565 822.7937,403.97565 C822.8027,403.87965 822.7277,403.77465 822.6897,403.67365 C822.6237,403.73465 822.5097,403.79265 822.5037,403.85765 C822.4957,403.95765 822.5637,404.06465 822.6007,404.16865 L822.6007,404.16865 Z M829.5077,433.32865 C829.5757,433.26465 829.6917,433.20565 829.6987,433.13565 C829.7077,433.03965 829.6337,432.93565 829.5957,432.83565 C829.5307,432.89665 829.4177,432.95465 829.4117,433.02065 C829.4037,433.11965 829.4717,433.22565 829.5077,433.32865 L829.5077,433.32865 Z M816.3097,422.30065 C816.4067,422.25165 816.5037,422.20265 816.6007,422.15265 C816.5097,422.09765 816.4197,422.00065 816.3267,421.99765 C816.2337,421.99465 816.1377,422.08565 816.0427,422.13565 C816.1317,422.19065 816.2207,422.24565 816.3097,422.30065 L816.3097,422.30065 Z M823.4347,437.64665 C823.6017,437.44665 823.7487,437.27065 823.8957,437.09565 C823.7967,437.05065 823.6657,436.94365 823.6047,436.97465 C823.4747,437.04065 823.3527,437.16365 823.2857,437.29365 C823.2547,437.35265 823.3607,437.48265 823.4347,437.64665 L823.4347,437.64665 Z M799.1797,423.02165 C799.3197,423.13765 799.4537,423.24865 799.5877,423.35865 C799.6467,423.22965 799.7877,423.03165 799.7487,422.98465 C799.6527,422.87065 799.4757,422.81965 799.3237,422.76665 C799.3087,422.76165 799.2377,422.91665 799.1797,423.02165 L799.1797,423.02165 Z M801.0797,400.82765 C801.1527,400.70465 801.2327,400.57265 801.3127,400.43965 C801.2037,400.38465 801.0317,400.25665 800.9957,400.28765 C800.8727,400.39165 800.7977,400.55265 800.7047,400.69165 C800.8097,400.72965 800.9137,400.76765 801.0797,400.82765 L801.0797,400.82765 Z M808.0017,419.95265 C808.1437,420.06965 808.2777,420.18065 808.4117,420.29065 C808.4717,420.16165 808.6147,419.96265 808.5757,419.91565 C808.4797,419.80165 808.3027,419.74965 808.1497,419.69665 C808.1337,419.69165 808.0617,419.84665 808.0017,419.95265 L808.0017,419.95265 Z M808.5507,406.58865 C808.7217,406.52065 808.8247,406.47965 808.9277,406.43965 C808.8227,406.29965 808.7317,406.14465 808.6027,406.03365 C808.5757,406.01065 808.4087,406.15065 808.3067,406.21565 C808.3907,406.34365 808.4747,406.47165 808.5507,406.58865 L808.5507,406.58865 Z M839.2897,427.78965 C839.4667,427.58865 839.6477,427.47365 839.6477,427.35965 C839.6467,427.23765 839.4857,427.03465 839.3747,427.01965 C839.2687,427.00465 839.0617,427.17165 839.0367,427.28765 C839.0117,427.40165 839.1607,427.55265 839.2897,427.78965 L839.2897,427.78965 Z M809.8747,434.56565 C809.6437,434.43065 809.4937,434.27465 809.3837,434.29965 C809.2647,434.32565 809.1007,434.52665 809.1097,434.63965 C809.1177,434.74565 809.3237,434.91065 809.4447,434.91365 C809.5577,434.91565 809.6747,434.73765 809.8747,434.56565 L809.8747,434.56565 Z M806.9017,394.49265 C807.1427,394.14465 807.3377,393.98865 807.3227,393.85565 C807.3007,393.67065 807.1247,393.50165 807.0137,393.32665 C806.9217,393.42665 806.7597,393.52165 806.7507,393.62865 C806.7357,393.82265 806.8117,394.02365 806.9017,394.49265 L806.9017,394.49265 Z M811.7657,410.35465 C811.5867,410.55665 811.4047,410.67165 811.4067,410.78465 C811.4087,410.90765 811.5677,411.10965 811.6797,411.12565 C811.7847,411.14165 811.9937,410.97465 812.0187,410.85765 C812.0437,410.74365 811.8937,410.59165 811.7657,410.35465 L811.7657,410.35465 Z M812.8177,402.08365 C812.9937,401.88265 813.1747,401.76665 813.1737,401.65265 C813.1727,401.53165 813.0117,401.32865 812.9007,401.31365 C812.7947,401.29965 812.5887,401.46665 812.5627,401.58365 C812.5387,401.69665 812.6887,401.84665 812.8177,402.08365 L812.8177,402.08365 Z M813.1987,417.81365 C813.3757,417.61265 813.5567,417.49865 813.5567,417.38365 C813.5567,417.26265 813.3957,417.05865 813.2847,417.04365 C813.1787,417.02865 812.9707,417.19465 812.9457,417.31165 C812.9207,417.42465 813.0707,417.57665 813.1987,417.81365 L813.1987,417.81365 Z M814.8737,392.89765 C814.7307,392.78865 814.5797,392.58665 814.4587,392.60365 C814.3257,392.62265 814.0967,392.91665 814.1237,392.96065 C814.2407,393.15265 814.4347,393.29765 814.6017,393.45865 C814.6747,393.30765 814.7477,393.15665 814.8737,392.89765 L814.8737,392.89765 Z M798.9687,426.59665 C799.1997,426.72865 799.3487,426.88165 799.4637,426.85965 C799.5817,426.83665 799.7477,426.63365 799.7387,426.52265 C799.7307,426.41565 799.5237,426.24865 799.4047,426.24865 C799.2867,426.24865 799.1697,426.42565 798.9687,426.59665 L798.9687,426.59665 Z M798.6217,428.17565 C798.7997,427.97265 798.9807,427.85665 798.9807,427.74065 C798.9817,427.61965 798.8177,427.41265 798.7077,427.39965 C798.5987,427.38765 798.3917,427.55265 798.3657,427.67065 C798.3407,427.78465 798.4917,427.93665 798.6217,428.17565 L798.6217,428.17565 Z M795.5087,405.72665 C795.6507,405.83665 795.8007,406.03765 795.9217,406.02165 C796.0537,406.00465 796.2817,405.71365 796.2547,405.66665 C796.1437,405.47565 795.9497,405.33165 795.7867,405.17065 C795.7127,405.31965 795.6377,405.46865 795.5087,405.72665 L795.5087,405.72665 Z M820.8777,423.18865 C821.0547,422.98465 821.2357,422.86865 821.2327,422.75665 C821.2287,422.63365 821.0697,422.43265 820.9567,422.41665 C820.8517,422.40165 820.6447,422.57065 820.6197,422.68765 C820.5957,422.80165 820.7467,422.95165 820.8777,423.18865 L820.8777,423.18865 Z M792.9637,414.95165 C792.7847,415.15565 792.6027,415.27265 792.6027,415.38765 C792.6037,415.51065 792.7677,415.71565 792.8807,415.73065 C792.9867,415.74465 793.1947,415.57465 793.2207,415.45665 C793.2457,415.34265 793.0947,415.19065 792.9637,414.95165 L792.9637,414.95165 Z M788.3587,432.98865 C788.1817,433.19065 788.0007,433.30665 788.0017,433.42065 C788.0027,433.54265 788.1637,433.74465 788.2767,433.76065 C788.3817,433.77565 788.5887,433.60765 788.6137,433.49065 C788.6387,433.37665 788.4887,433.22565 788.3587,432.98865 L788.3587,432.98865 Z M829.4457,402.33865 C829.2117,402.20165 829.0607,402.04365 828.9487,402.06765 C828.8297,402.09365 828.6657,402.29565 828.6727,402.41065 C828.6797,402.51665 828.8867,402.68465 829.0087,402.68665 C829.1237,402.68965 829.2417,402.51065 829.4457,402.33865 L829.4457,402.33865 Z M835.5167,423.99165 C835.7857,423.70165 835.9797,423.49265 836.1737,423.28265 C836.0087,423.22065 835.8207,423.07865 835.6817,423.11565 C835.4937,423.16665 835.3207,423.33765 835.1907,423.49765 C835.1627,423.53265 835.3457,423.73965 835.5167,423.99165 L835.5167,423.99165 Z M828.8447,414.82565 C829.1037,414.54265 829.3117,414.40365 829.2927,414.31865 C829.2417,414.10165 829.0987,413.90065 828.9617,413.71765 C828.9457,413.69565 828.6267,413.83065 828.6307,413.87365 C828.6567,414.13265 828.7377,414.38565 828.8447,414.82565 L828.8447,414.82565 Z M803.3797,435.00865 C803.1417,434.83865 802.9637,434.64665 802.9007,434.67865 C802.6507,434.80765 802.4367,435.00565 802.2087,435.17865 C802.3757,435.34265 802.6277,435.67565 802.6937,435.64165 C802.9337,435.51965 803.1107,435.27465 803.3797,435.00865 L803.3797,435.00865 Z M815.6627,397.76265 C815.8677,397.58765 816.0447,397.49965 816.1217,397.35765 C816.2717,397.08265 815.9417,396.66865 815.5677,396.68565 C815.4467,396.69165 815.2167,396.92265 815.2367,396.97665 C815.3337,397.23965 815.4987,397.47665 815.6627,397.76265 L815.6627,397.76265 Z M821.4887,404.28265 C821.6857,404.07765 821.8087,403.94765 821.9327,403.81765 L821.2417,403.20165 C821.1497,403.33165 820.9537,403.51165 820.9877,403.58165 C821.1037,403.82465 821.2997,404.03065 821.4887,404.28265 L821.4887,404.28265 Z M822.0917,427.12065 C822.2967,427.31665 822.4267,427.44065 822.5557,427.56365 C822.7617,427.33365 822.9667,427.10365 823.1717,426.87365 C823.0427,426.78265 822.8637,426.58665 822.7937,426.61965 C822.5497,426.73565 822.3437,426.93165 822.0917,427.12065 L822.0917,427.12065 Z M831.7827,426.24765 C831.5497,426.04565 831.3507,425.83365 831.3217,425.85465 C831.0507,426.05365 830.8017,426.28665 830.5717,426.53365 C830.5587,426.54865 830.8307,426.88565 830.8567,426.87065 C831.1477,426.70665 831.4177,426.50365 831.7827,426.24765 L831.7827,426.24765 Z M816.4477,437.06965 C816.7067,436.85465 817.0337,436.66065 817.0087,436.59065 C816.9167,436.32765 816.7097,436.10465 816.5457,435.86665 C816.3587,436.07765 816.1207,436.26665 816.0117,436.51165 C815.9727,436.59865 816.2487,436.82465 816.4477,437.06965 L816.4477,437.06965 Z M815.0087,403.60765 C815.2217,403.22365 815.3987,402.98165 815.4707,402.71265 C815.4857,402.65265 815.1207,402.39965 814.9397,402.40865 C814.7697,402.41665 814.4507,402.70665 814.4747,402.78065 C814.5597,403.03665 814.7657,403.25365 815.0087,403.60765 L815.0087,403.60765 Z M810.8257,430.15965 C811.0187,429.92065 811.2957,429.69265 811.2567,429.60365 C811.1487,429.35865 810.9077,429.17165 810.7197,428.96165 C810.5567,429.19865 810.3507,429.42065 810.2607,429.68265 C810.2357,429.75365 810.5637,429.94565 810.8257,430.15965 L810.8257,430.15965 Z M800.6317,422.42665 C800.4237,422.85865 800.2157,423.17065 800.2617,423.21365 C800.5097,423.44965 800.8207,423.61865 801.1097,423.81065 C801.1907,423.65365 801.3787,423.44565 801.3327,423.35065 C801.2017,423.08265 800.9757,422.86165 800.6317,422.42665 L800.6317,422.42665 Z M804.9867,417.94565 C805.2787,418.18165 805.5597,418.45565 805.5927,418.42865 C805.8527,418.21465 806.0647,417.94365 806.2927,417.68965 C806.1037,417.57465 805.8837,417.33465 805.7337,417.37265 C805.4997,417.43165 805.3137,417.67965 804.9867,417.94565 L804.9867,417.94565 Z M806.3527,405.47965 C806.3467,406.10865 806.6657,406.54865 807.0247,406.43865 C807.1777,406.39165 807.3707,406.18665 807.3857,406.03565 C807.4217,405.69665 806.8387,405.03965 806.6347,405.13965 C806.4967,405.20765 806.4177,405.39565 806.3527,405.47965 L806.3527,405.47965 Z M828.1707,429.79165 C827.9947,430.19565 827.7957,430.43165 827.8487,430.57365 C827.9687,430.89365 828.2127,431.16565 828.4067,431.45665 C828.5837,431.22465 828.9337,430.96065 828.8987,430.76665 C828.8457,430.47565 828.5217,430.23465 828.1707,429.79165 L828.1707,429.79165 Z M822.8427,402.74065 C822.9107,402.80265 823.0847,403.00365 823.1147,402.98465 C823.5097,402.72265 823.8857,402.43065 824.2667,402.14665 C824.0837,401.98165 823.9217,401.71465 823.7147,401.67465 C823.2447,401.58165 822.8817,402.03465 822.8427,402.74065 L822.8427,402.74065 Z M827.1937,411.65965 C827.0077,411.34965 826.8657,411.11165 826.7237,410.87465 C826.4667,411.09765 826.2087,411.32065 825.9517,411.54365 C826.1797,411.79965 826.4077,412.05565 826.6367,412.31065 C826.8087,412.10965 826.9807,411.90865 827.1937,411.65965 L827.1937,411.65965 Z M828.1947,397.86765 C828.1377,397.67565 828.1387,397.60165 828.1017,397.56665 C827.9137,397.38965 826.6747,397.54165 826.5067,397.77365 C826.4497,397.85165 826.4197,398.05365 826.4577,398.07865 C826.6997,398.23965 827.0057,398.52465 827.2107,398.47065 C827.5807,398.37265 827.8937,398.06465 828.1947,397.86765 L828.1947,397.86765 Z M833.8157,417.16465 C833.4517,416.89565 833.2057,416.57865 833.0347,416.61465 C832.7117,416.68465 832.4327,416.95665 832.1357,417.14565 C832.4277,417.33965 832.6997,417.61865 833.0197,417.69465 C833.1917,417.73465 833.4457,417.42465 833.8157,417.16465 L833.8157,417.16465 Z M807.6697,420.31565 C807.3887,419.97165 807.1397,419.66665 806.8917,419.36165 C806.7097,419.66165 806.4197,419.94665 806.3707,420.26665 C806.3027,420.71465 806.8327,421.25165 807.1317,421.10565 C807.3427,421.00265 807.4407,420.67065 807.6697,420.31565 L807.6697,420.31565 Z M824.4327,423.45365 C825.4297,423.61565 825.8447,423.04465 826.2347,422.47565 C826.2877,422.39865 826.1577,422.07965 826.0417,422.02565 C825.4697,421.76265 824.8137,421.99365 824.2677,422.65765 C824.1387,422.81465 824.0917,423.09265 824.1197,423.29865 C824.1327,423.39265 824.4207,423.44865 824.4327,423.45365 L824.4327,423.45365 Z M790.2767,422.79165 C790.5857,422.68765 790.7657,422.64065 790.9347,422.56865 C791.7247,422.22965 791.9207,421.86865 791.7427,420.93565 C791.7057,420.74665 791.4807,420.47765 791.3097,420.44865 C790.5857,420.32965 790.3347,420.86665 790.1257,421.42165 C790.0387,421.65365 789.8467,421.89565 789.8757,422.10965 C789.9077,422.35165 790.1357,422.56765 790.2767,422.79165 L790.2767,422.79165 Z M815.7197,430.38265 C815.6007,430.47465 815.3357,430.60965 815.1657,430.82065 C814.5767,431.55665 814.0247,432.32065 813.4517,433.06965 C813.2197,433.37165 813.2657,433.61665 813.5007,433.90965 C813.8167,434.30365 814.1247,434.04965 814.2937,433.85865 C815.0317,433.02665 815.7457,432.16965 816.4147,431.28065 C816.6907,430.91265 816.3837,430.45465 815.7197,430.38265 L815.7197,430.38265 Z M820.1077,391.72165 C820.0807,392.70965 820.2447,393.62365 821.1037,394.22665 C821.3667,394.41065 821.7867,394.52465 822.0807,394.45165 C822.2597,394.40665 822.4267,393.94965 822.4417,393.66865 C822.5167,392.32765 821.8417,391.28865 820.9717,390.36365 C820.6297,390.00065 820.3817,390.38065 820.2867,390.62765 C820.1567,390.96565 820.1607,391.35465 820.1077,391.72165 L820.1077,391.72165 Z M839.3347,423.09665 C839.2107,423.10565 839.0627,423.07565 838.9687,423.13365 C838.8357,423.21665 838.6707,423.35565 838.6557,423.48565 C838.6447,423.58165 838.8647,423.79865 838.9617,423.78765 C839.0907,423.77265 839.2287,423.60565 839.3097,423.47165 C839.3667,423.37765 839.3357,423.22965 839.3437,423.10565 C839.4687,423.09665 839.6177,423.12765 839.7127,423.07065 C839.8467,422.98965 840.0157,422.85265 840.0297,422.72365 C840.0407,422.62565 839.8247,422.40465 839.7287,422.41565 C839.5977,422.42965 839.4577,422.59465 839.3747,422.72765 C839.3157,422.82265 839.3457,422.97165 839.3347,423.09665 L839.3347,423.09665 Z M826.1027,438.44365 C822.9047,438.44365 819.6317,438.42565 816.2437,438.45265 C815.1157,438.46265 814.1367,438.33065 813.0117,438.75865 C812.4547,438.97065 811.8087,438.87865 811.1887,438.76965 C808.7537,438.33865 806.4367,438.32265 804.0967,438.77465 C803.7257,438.84665 803.3507,438.81465 802.9677,438.81465 C796.9597,438.81465 790.9617,438.81565 784.9537,438.80665 C783.6847,438.80565 783.4937,438.58865 783.7427,437.37565 C783.9297,436.46165 784.2657,435.57665 784.4367,434.65965 C784.7477,432.99865 784.9507,431.31565 785.2677,429.65565 C785.4787,428.55265 785.7537,427.45465 786.0977,426.38565 C787.8267,421.00865 789.3907,415.56765 792.1087,410.56365 C792.5567,409.73765 792.8697,408.83665 793.2267,407.96365 C794.0967,405.83665 795.5627,404.07765 796.7957,402.17565 C797.2407,401.48865 797.8237,400.88765 798.2447,400.18765 C798.9027,399.09565 799.7447,398.16765 800.5587,397.19765 C803.4867,393.71065 807.2017,391.25365 811.0337,388.93065 C811.4107,388.70165 811.8057,388.47865 812.1217,388.17865 C813.1237,387.22865 814.2837,387.29765 815.4907,387.58065 C815.7937,387.65165 816.1037,387.81865 816.3947,387.78965 C817.6427,387.66765 818.7167,388.19165 819.8707,388.52065 C822.6427,389.30965 824.8067,390.98165 826.9047,392.81965 C827.5207,393.35965 828.2017,393.82665 828.8147,394.37165 C830.7777,396.11565 832.2137,398.28365 833.5647,400.49665 C834.7797,402.48865 835.9247,404.52965 836.9987,406.60165 C837.6017,407.76565 838.0057,409.03565 838.4887,410.26165 C839.2007,412.07365 839.9377,413.87565 840.5917,415.70865 C840.9047,416.58565 841.0277,417.52965 841.2737,418.43265 C841.7847,420.30165 842.3517,422.15465 842.8377,424.03065 C843.2437,425.59965 843.5947,427.18465 843.9017,428.77565 C843.9647,429.10165 843.6937,429.48065 843.6297,429.84465 C843.5887,430.07965 843.5447,430.44565 843.6727,430.55965 C844.8047,431.56065 844.2667,433.00965 844.6737,434.19965 C844.7427,434.39965 844.5357,434.81165 844.3347,434.95865 C844.0187,435.18865 843.9627,435.24565 844.3687,435.36865 C844.5967,435.43765 844.9747,435.51365 845.0057,435.65065 C845.2017,436.50465 845.3437,437.37465 845.4417,438.24565 C845.4607,438.41165 845.2297,438.73765 845.0707,438.76965 C843.6007,439.06365 842.1967,438.47465 840.7517,438.37665 C840.6697,438.37065 840.5367,438.06965 840.5457,437.91365 C840.6577,435.96565 840.2957,435.13865 838.8977,434.40665 C838.6477,434.27565 838.2617,434.23465 838.0117,434.33465 C837.8237,434.41065 837.5937,434.83465 837.6557,435.00365 C837.8927,435.65265 838.1467,436.27365 838.2717,436.97465 C838.3367,437.33965 838.9847,437.59665 839.3607,437.91265 C839.4547,437.99165 839.5167,438.10965 839.5937,438.20965 C839.4537,438.28765 839.3137,438.52765 839.1737,438.52865 C836.1697,438.54365 833.1657,438.63965 830.1617,438.63965 L826.1027,438.63965 L826.1027,438.44365 Z M672.036,473.36255 C674.27,473.49655 676.691,473.07955 679.13,472.73955 C680.216,472.58755 681.364,472.90755 682.486,472.97055 C683.315,473.01755 684.213,472.79755 684.963,473.04755 C686.223,473.46655 687.496,473.47755 688.727,473.33655 C691.129,473.06255 693.528,472.95155 695.939,472.98155 C696.423,472.98855 696.644,472.76255 696.624,472.29555 C696.603,471.81855 696.69,471.37855 697.154,471.15855 C697.748,470.87655 698.117,470.66055 697.247,470.20955 C697.067,470.11655 697.017,469.65155 697.014,469.35755 C696.998,467.56755 696.976,465.77655 697.032,463.98755 C697.058,463.18055 697.297,462.38255 697.374,461.57455 C697.452,460.76255 697.493,459.96955 697.687,459.15055 C697.987,457.87955 697.942,456.52755 698.082,455.21155 C698.405,452.19155 698.732,449.15255 698.562,446.09355 C698.529,445.48955 698.8,444.87455 698.883,444.25855 C699.259,441.44855 700.356,438.83055 701.026,436.10155 C701.577,433.85855 701.943,431.57055 702.378,429.29955 C702.838,426.89355 703.438,424.52855 704.501,422.30855 C705.103,421.05155 705.775,419.82755 706.358,418.56155 C707.518,416.04255 708.631,413.50155 709.78,410.97755 C709.962,410.57855 710.211,410.20455 710.462,409.84255 C713.046,406.11655 715.555,402.33255 718.262,398.69855 C719.505,397.03055 721.036,395.52655 722.863,394.43755 C725.688,392.75155 728.2,390.63955 730.826,388.68255 C731.858,387.91355 732.852,387.28655 734.249,387.38355 C735.232,387.45155 736.261,386.97055 737.229,387.08255 C740.907,387.50955 744.593,387.36855 748.276,387.45555 C749.082,387.47455 749.887,387.79455 750.687,387.77555 C751.749,387.75055 752.931,387.77255 753.826,387.31455 C754.575,386.93155 755.111,387.58055 755.786,387.23255 C756.304,386.96555 757.022,387.04655 757.652,387.04555 C763.022,387.03655 768.394,387.12255 773.762,387.01355 C776.443,386.95955 779.073,387.41055 781.735,387.46355 C783.092,387.49055 784.425,387.47855 785.77,387.18555 C786.623,386.99955 787.605,386.89955 788.409,387.14855 C789.175,387.38655 789.9,387.41355 790.65,387.41855 C793.271,387.43655 795.924,387.67155 798.504,387.34555 C800.923,387.03955 803.316,387.14055 805.72,387.04855 C806.039,387.03655 806.368,387.00755 806.677,387.06555 C807.409,387.20155 808.133,387.38555 808.859,387.55055 C808.267,387.95655 807.693,388.39255 807.08,388.76555 C805.087,389.97755 803.048,391.11855 801.09,392.38555 C799.983,393.10155 798.997,394.00555 797.966,394.83655 C797.177,395.47155 796.481,396.27355 795.604,396.73355 C794.395,397.36755 793.739,398.42955 793.025,399.45855 C791.518,401.63055 790.094,403.86055 788.587,406.03355 C787.976,406.91455 787.226,407.69755 786.564,408.54455 C786.254,408.94055 785.941,409.35455 785.737,409.80855 C784.753,411.99055 783.91,414.24155 782.819,416.36755 C781.628,418.68555 781.193,421.23955 780.271,423.63755 C779.713,425.08955 779.058,426.52555 778.884,428.11055 C778.796,428.91555 778.572,429.70455 778.461,430.50755 C778.116,433.00155 777.031,435.29955 776.56,437.75855 C776.336,438.92755 776.166,440.11555 775.945,441.27255 C775.498,443.61455 775.973,446.08655 774.918,448.32955 C774.842,448.49155 774.882,448.70855 774.873,448.89955 C774.743,451.42955 774.759,453.97855 774.435,456.48355 C774.21,458.22155 774.103,459.97455 773.848,461.71355 C773.586,463.50555 773.79,465.38455 773.945,467.21255 C774.047,468.41455 774.193,469.57855 773.875,470.77255 C773.374,472.65355 773.841,473.26555 775.827,473.35455 C776.976,473.40555 778.129,473.36855 779.279,473.37655 C779.718,473.37955 780.198,473.29855 780.353,473.91655 C780.365,473.96055 780.921,473.95655 780.937,473.89755 C781.069,473.40355 781.425,473.34255 781.827,473.37955 C783.4,473.52255 784.972,473.26055 786.568,473.59755 C787.545,473.80355 788.679,473.49555 789.694,473.23155 C790.96,472.90255 792.17,472.88355 793.424,473.22955 C793.902,473.36255 794.425,473.36455 794.928,473.36655 C797.486,473.37855 800.043,473.36655 802.6,473.37455 C802.777,473.37555 802.953,473.46655 803.129,473.51555 C802.987,473.58855 802.853,473.68355 802.703,473.72855 C800.609,474.36355 798.538,475.10155 796.411,475.59555 C793.709,476.22255 791.095,477.08755 788.6,478.25555 C787.161,478.92855 785.646,479.35155 784.155,479.76755 C783.121,480.05655 782.061,480.36555 781.156,480.83055 C779.173,481.84855 777.049,482.38455 774.973,483.09355 C772.838,483.82355 770.721,484.60855 768.573,485.30155 C766.849,485.85755 765.069,486.24355 763.356,486.83055 C761.753,487.38055 760.182,488.04055 758.645,488.75755 C757.435,489.32155 756.24,489.73855 754.886,489.91355 C753.549,490.08555 752.155,490.28655 750.935,491.04155 C749.315,492.04355 747.557,492.64355 745.661,492.99755 C744.077,493.29355 742.567,493.98155 741.022,494.48755 C739.239,495.07255 737.46,495.66755 735.665,496.21355 C735.339,496.31255 734.939,496.24255 734.587,496.17455 C730.561,495.40455 726.873,493.61755 723.015,492.34155 C718.978,491.00655 714.865,489.90355 710.799,488.65655 C709.841,488.36355 708.922,487.92855 708.008,487.50755 C706.244,486.69455 704.652,485.54655 702.552,485.50055 C700.851,485.46355 699.337,484.51055 697.771,483.89255 C696.367,483.33855 694.972,482.82755 693.487,482.49455 C691.54,482.05755 689.595,481.51255 687.743,480.77555 C685.139,479.73855 682.358,479.16955 679.909,477.69055 C678.972,477.12555 677.772,477.00755 676.707,476.64155 C673.924,475.68555 671.149,474.70555 668.373,473.72855 C668.238,473.68055 668.123,473.57355 668,473.49455 C668.178,473.45055 668.355,473.37055 668.534,473.36855 C669.621,473.35655 670.707,473.36255 672.036,473.36255 Z" id="Arrow"></path>
        </g>
    </g>
</svg>