<svg width="58px" height="59px" viewBox="0 0 58 59" version="1.1" xmlns="http://www.w3.org/2000/svg" xmlns:xlink="http://www.w3.org/1999/xlink">
    <g id="Symbols" stroke="none" stroke-width="1" fill="none" fill-rule="evenodd">
        <g id="Footer" transform="translate(-870.000000, -505.000000)" fill="#FFFFFF">
            <g id="Social">
                <g transform="translate(150.000000, 505.000000)">
                    <g id="Facebook" transform="translate(655.000000, 0.000000)">
                        <path d="M119.699187,0.739130435 C120.537495,0.739130435 121.297198,1.05434783 121.978315,1.68478261 C122.659442,2.31521739 123,3.05071791 123,3.89130435 L123,55.5869565 C123,56.4275399 122.659442,57.1630405 121.978315,57.7934783 C121.297198,58.4239162 120.537495,58.7391304 119.699187,58.7391304 L104.924119,58.7391304 L104.924119,36.3586957 L112.468835,36.3586957 L113.569106,27.5326087 L104.924119,27.5326087 L104.924119,21.8586957 C104.924119,19.021729 106.391134,17.6032609 109.325203,17.6032609 L113.883469,17.6032609 L113.883469,9.88043478 C112.311643,9.56521739 110.058731,9.4076087 107.124661,9.4076087 C103.771438,9.4076087 101.073186,10.4320501 99.0298053,12.4809732 C96.9864348,14.5299064 95.9647696,17.3930991 95.9647696,21.0706522 L95.9647696,27.5326087 L88.4200542,27.5326087 L88.4200542,36.3586957 L95.9647696,36.3586957 L95.9647696,58.7391304 L68.1436314,58.7391304 C67.305326,58.7391304 66.5718187,58.4239162 65.9430894,57.7934783 C65.31436,57.1630405 65,56.4275399 65,55.5869565 L65,3.89130435 C65,3.05071791 65.31436,2.31521739 65.9430894,1.68478261 C66.5718187,1.05434783 67.305326,0.739130435 68.1436314,0.739130435 L119.699187,0.739130435 Z" id="Page-1"></path>
                    </g>
                </g>
            </g>
        </g>
    </g>
</svg>