<?xml version="1.0" encoding="UTF-8"?>
<svg width="30px" height="32px" viewBox="0 0 30 32" version="1.1" xmlns="http://www.w3.org/2000/svg" xmlns:xlink="http://www.w3.org/1999/xlink">
    <!-- Generator: Sketch 49.1 (51147) - http://www.bohemiancoding.com/sketch -->
    <title>Page 1</title>
    <desc>Created with Sketch.</desc>
    <defs></defs>
    <g id="Symbols" stroke="none" stroke-width="1" fill="none" fill-rule="evenodd">
        <g id="Footer" transform="translate(-117.000000, -401.000000)" fill="#F3A523">
            <g id="Parking">
                <g transform="translate(117.000000, 401.000000)">
                    <path d="M30,0.973175296 L30,30.8635594 L30,30.9330719 L30,31.072097 L29.9302326,31.072097 C29.8372108,31.581858 29.5348867,31.8367347 29.0232558,31.8367347 L0.976744186,31.8367347 C0.325578151,31.8367347 0,31.5123462 0,30.8635594 L0,11.1915159 L11.2325581,0 L29.0232558,0 C29.6744216,0 30,0.3243888 30,0.973175296 Z M21.2790698,3.54513858 L19.9534884,5.83905178 L26.4418605,12.2342037 L26.4418605,3.54513858 L21.2790698,3.54513858 Z M11.2325581,12.1646912 L3.55813953,12.1646912 L3.55813953,14.3195794 L9.55813953,20.2281437 L19.255814,3.54513858 L12.2093023,3.54513858 L12.2093023,11.1915159 C12.2093023,11.8403024 11.8837239,12.1646912 11.2325581,12.1646912 Z M3.55813953,28.2915961 L4.88372093,28.2915961 L8.58139535,21.8269316 L3.55813953,16.8220301 L3.55813953,28.2915961 Z M6.90697674,28.2915961 L26.4418605,28.2915961 L26.4418605,14.806167 L19.0465116,7.43783976 L6.90697674,28.2915961 Z M19.255814,14.3195794 C20.4651237,14.3195794 21.4883676,14.7482347 22.3255814,15.6055588 C23.1627952,16.4628873 23.5813953,17.4708077 23.5813953,18.6293557 C23.5813953,19.6488786 23.30233,20.5061893 22.744186,21.201319 L20.0232558,25.8586579 C20.0232558,25.905001 19.9767427,25.9745136 19.8837209,26.0671954 C19.6976729,26.2525636 19.5116294,26.3452455 19.3255814,26.3452455 C18.9999985,26.3452455 18.7674419,26.2525636 18.627907,26.0671954 L18.627907,25.9976829 L18.627907,25.9281704 L15.8372093,21.1318064 C15.2790653,20.3439949 15,19.5098535 15,18.6293557 C15,17.4244646 15.4186002,16.4049594 16.255814,15.5708047 C17.0930277,14.73665 18.0930173,14.3195794 19.255814,14.3195794 Z M17.7209302,20.2281437 C18.1395349,20.5988801 18.6511613,20.7842438 19.255814,20.7842438 C19.8604666,20.7842438 20.3604614,20.5872954 20.7558162,20.1933852 C21.1511665,19.7994794 21.3488372,19.3013115 21.3488372,18.6988682 C21.3488372,18.0964249 21.1511665,17.5866679 20.7558162,17.1695927 C20.3604614,16.7525176 19.8604666,16.54398 19.255814,16.54398 C18.6511613,16.54398 18.1511665,16.7525176 17.7558117,17.1695927 C17.3604614,17.5866679 17.1627907,18.0964249 17.1627907,18.6988682 C17.1627907,19.3013115 17.3488342,19.8110685 17.7209302,20.2281437 Z" id="Page-1"></path>
                </g>
            </g>
        </g>
    </g>
</svg>