<svg width="137px" height="85px" viewBox="0 0 137 85" version="1.1" xmlns="http://www.w3.org/2000/svg" xmlns:xlink="http://www.w3.org/1999/xlink">
    <g id="Main-Navigation" stroke="none" stroke-width="1" fill="none" fill-rule="evenodd" transform="translate(-77.000000, -23.000000)">
        <g id="Group">
            <g transform="translate(76.000000, 23.000000)">
                <text id="HEY!-MONKEY" font-family="Futura-Bold, Futura" font-size="18" font-weight="bold" letter-spacing="0.112500004" fill="#F5A623">
                    <tspan x="0" y="84">HEY! MONKEY</tspan>
                </text>
                <g id="Fez" transform="translate(8.000000, 0.000000)">
                    <path d="M77.7877356,11.2957435 C76.2907356,7.01874351 71.5157356,4.55574351 66.7327356,5.59374351 L58.1967356,7.44574351 C57.1417356,5.14474351 54.5127356,3.71574351 51.6837356,4.11974351 C51.4397356,4.15374351 51.2127356,4.22374351 50.9807356,4.28274351 C48.7287356,1.03274351 44.3577356,-0.54025649 39.3947356,0.16674351 C32.8157356,1.10474351 29.0977356,5.58774351 25.8177356,9.54274351 C23.3467356,12.5217435 21.2117356,15.0947435 18.4517356,15.4887435 C18.4087356,15.4947435 18.3787356,15.4877435 18.3397356,15.4907435 C18.2967356,15.4367435 18.2637356,15.3787435 18.2177356,15.3277435 C18.1837356,15.2947435 18.1517356,15.2657435 18.1187356,15.2337435 L18.0817356,15.1377435 C16.4527356,13.6307435 15.2917356,13.0447435 10.2027356,13.7267435 C5.77073558,14.3107435 -0.170264419,18.4597435 0.00373558117,19.6267435 C5.41373558,17.7437435 5.31173558,23.5677435 12.2107356,22.9067435 C15.1377356,22.6267435 17.8597356,21.4887435 19.4717356,18.8467435 L19.4647356,18.8307435 C23.4627356,18.0237435 26.1817356,14.7927435 28.7977356,11.6367435 C31.7707356,8.05274351 34.8437356,4.34774351 39.8877356,3.62874351 C41.2197356,3.43874351 45.6037356,3.09574351 47.7577356,6.19274351 C46.8147356,7.24974351 46.2667356,8.60074351 46.2977356,10.0287435 L38.5817356,11.7037435 C33.7997356,12.7417435 30.5587356,16.9437435 31.0787356,21.4337435 L35.0007356,55.2627435 C35.0897356,56.0337435 35.5287356,56.7257435 36.2077356,57.1677435 C36.8867356,57.6097435 37.7437356,57.7597435 38.5647356,57.5817435 C58.7347356,56.1787435 71.1027356,52.9627435 86.3737356,47.2057435 C87.3197356,46.9997435 88.1357356,46.4357435 88.6207356,45.6507435 C89.1057356,44.8667435 89.2137356,43.9367435 88.9177356,43.0907435 L77.7877356,11.2957435 Z" id="Fill-21" fill="#C1292E"></path>
                    <polygon id="Fill-33" fill="#FFFFFF" points="57.2044356 18.6660435 60.0874356 27.5940435 68.7034356 26.6220435 62.0174356 33.3430435 68.1334356 43.7960435 57.1904356 37.0120435 48.1464356 41.9900435 52.8684356 33.0780435 45.1324356 26.6990435 54.6834356 27.9760435"></polygon>
                </g>
            </g>
        </g>
    </g>
</svg>